<svg width="15" height="15" viewBox="0 0 15 15" fill="none" xmlns="http://www.w3.org/2000/svg">
<path id="Icon" d="M6 1.5C4.34315 1.5 3 2.84315 3 4.5C3 6.15685 4.34315 7.5 6 7.5C7.65685 7.5 9 6.15685 9 4.5C9 2.84315 7.65685 1.5 6 1.5ZM1.5 4.5C1.5 2.01472 3.51472 0 6 0C8.48528 0 10.5 2.01472 10.5 4.5C10.5 6.98528 8.48528 9 6 9C3.51472 9 1.5 6.98528 1.5 4.5ZM11.1213 1.31802C11.4142 1.02513 11.8891 1.02513 12.182 1.31802C13.9393 3.07538 13.9393 5.92462 12.182 7.68198C11.8891 7.97487 11.4142 7.97487 11.1213 7.68198C10.8284 7.38909 10.8284 6.91421 11.1213 6.62132C12.2929 5.44975 12.2929 3.55025 11.1213 2.37868C10.8284 2.08579 10.8284 1.61091 11.1213 1.31802ZM11.6474 11.0681C11.7479 10.6663 12.1551 10.4219 12.5569 10.5224C13.5528 10.7714 14.1832 11.4082 14.5458 12.1333C14.8967 12.835 15 13.6178 15 14.25C15 14.6642 14.6642 15 14.25 15C13.8358 15 13.5 14.6642 13.5 14.25C13.5 13.7572 13.4158 13.2275 13.2042 12.8042C13.0043 12.4043 12.6972 12.1036 12.1931 11.9776C11.7913 11.8771 11.5469 11.4699 11.6474 11.0681ZM3.375 12C2.43041 12 1.5 12.9102 1.5 14.25C1.5 14.6642 1.16421 15 0.75 15C0.335786 15 0 14.6642 0 14.25C0 12.2761 1.4201 10.5 3.375 10.5H8.625C10.5799 10.5 12 12.2761 12 14.25C12 14.6642 11.6642 15 11.25 15C10.8358 15 10.5 14.6642 10.5 14.25C10.5 12.9102 9.56959 12 8.625 12H3.375Z" fill="#FD5056"/>
</svg>
