<svg width="13" height="14" viewBox="0 0 13 14" fill="currentColor" xmlns="http://www.w3.org/2000/svg">
<path d="M4.10526 0.0546875C4.48314 0.0546875 4.78947 0.361019 4.78947 0.738898V1.42311H7.52632V0.738898C7.52632 0.361019 7.83265 0.0546875 8.21053 0.0546875C8.58841 0.0546875 8.89474 0.361019 8.89474 0.738898V1.42311H10.9474C11.7031 1.42311 12.3158 2.03577 12.3158 2.79153V11.6863C12.3158 12.442 11.7031 13.0547 10.9474 13.0547H1.36842C0.612663 13.0547 0 12.442 0 11.6863V2.79153C0 2.03577 0.612663 1.42311 1.36842 1.42311H3.42105V0.738898C3.42105 0.361019 3.72738 0.0546875 4.10526 0.0546875ZM3.42105 2.79153H1.36842V4.84416H10.9474V2.79153H8.89474V3.47574C8.89474 3.85362 8.58841 4.15995 8.21053 4.15995C7.83265 4.15995 7.52632 3.85362 7.52632 3.47574V2.79153H4.78947V3.47574C4.78947 3.85362 4.48314 4.15995 4.10526 4.15995C3.72738 4.15995 3.42105 3.85362 3.42105 3.47574V2.79153ZM10.9474 6.21258H1.36842V11.6863H10.9474V6.21258Z" fill="currentColor"/>
</svg>
