<svg width="13" height="13" viewBox="0 0 13 13" fill="none" xmlns="http://www.w3.org/2000/svg">
<path id="Date Icon" d="M4.10526 0C4.48314 0 4.78947 0.306331 4.78947 0.684211V1.36842H7.52632V0.684211C7.52632 0.306331 7.83265 0 8.21053 0C8.58841 0 8.89474 0.306331 8.89474 0.684211V1.36842H10.9474C11.7031 1.36842 12.3158 1.98108 12.3158 2.73684V11.6316C12.3158 12.3873 11.7031 13 10.9474 13H1.36842C0.612663 13 0 12.3873 0 11.6316V2.73684C0 1.98108 0.612663 1.36842 1.36842 1.36842H3.42105V0.684211C3.42105 0.306331 3.72738 0 4.10526 0ZM3.42105 2.73684H1.36842V4.78947H10.9474V2.73684H8.89474V3.42105C8.89474 3.79893 8.58841 4.10526 8.21053 4.10526C7.83265 4.10526 7.52632 3.79893 7.52632 3.42105V2.73684H4.78947V3.42105C4.78947 3.79893 4.48314 4.10526 4.10526 4.10526C3.72738 4.10526 3.42105 3.79893 3.42105 3.42105V2.73684ZM10.9474 6.1579H1.36842V11.6316H10.9474V6.1579Z" fill="#FD5056"/>
</svg>
