<svg width="59" height="59" viewBox="0 0 59 59" fill="none" xmlns="http://www.w3.org/2000/svg">
<path d="M45 0H14C6.26801 0 0 6.26801 0 14V45C0 52.732 6.26801 59 14 59H45C52.732 59 59 52.732 59 45V14C59 6.26801 52.732 0 45 0Z" fill="#1EBBD7"/>
<path opacity="0.5" d="M31.2087 26.868C30.7319 27.1768 30.1713 27.3416 29.5978 27.3416C28.8288 27.3416 28.0913 27.0455 27.5475 26.5185C27.0037 25.9914 26.6982 25.2766 26.6982 24.5312C26.6982 23.9753 26.8683 23.4319 27.1869 22.9698C27.5055 22.5076 27.9584 22.1474 28.4882 21.9346C29.018 21.7219 29.601 21.6663 30.1635 21.7747C30.726 21.8831 31.2426 22.1508 31.6481 22.5439C32.0536 22.9369 32.3298 23.4377 32.4417 23.9829C32.5536 24.5281 32.4961 25.0931 32.2767 25.6067C32.0572 26.1202 31.6856 26.5592 31.2087 26.868Z" fill="white"/>
<path opacity="0.5" d="M19.4498 41H39.7468C40.1313 41 40.5001 41.148 40.772 41.4116C41.0438 41.6751 41.1966 42.0325 41.1966 42.4052C41.1966 42.7779 41.0438 43.1354 40.772 43.3989C40.5001 43.6624 40.1313 43.8105 39.7468 43.8105H19.4498C19.0653 43.8105 18.6965 43.6624 18.4246 43.3989C18.1527 43.1354 18 42.7779 18 42.4052C18 42.0325 18.1527 41.6751 18.4246 41.4116C18.6965 41.148 19.0653 41 19.4498 41Z" fill="white"/>
<path d="M28.5691 37.0516C28.7039 37.1833 28.8642 37.2879 29.0409 37.3592C29.2176 37.4306 29.4071 37.4673 29.5985 37.4673C29.7898 37.4673 29.9793 37.4306 30.156 37.3592C30.3327 37.2879 30.493 37.1833 30.6278 37.0516L36.5574 31.2902C37.9347 29.956 38.8727 28.2558 39.253 26.4048C39.6332 24.5538 39.4386 22.6351 38.6937 20.8913C37.9487 19.1475 36.687 17.657 35.068 16.6084C33.4491 15.5597 31.5456 15 29.5985 15C27.6513 15 25.7478 15.5597 24.1289 16.6084C22.5099 17.657 21.2482 19.1475 20.5032 20.8913C19.7583 22.6351 19.5637 24.5538 19.9439 26.4048C20.3242 28.2558 21.2622 29.956 22.6395 31.2902L28.5691 37.0516ZM22.683 23.8846C22.782 22.8827 23.1107 21.9149 23.6449 21.0518C24.1792 20.1887 24.9056 19.4522 25.771 18.896C26.9079 18.1725 28.2384 17.787 29.5985 17.787C30.9585 17.787 32.289 18.1725 33.4259 18.896C34.2856 19.4503 35.0078 20.1824 35.5407 21.0395C36.0736 21.8967 36.404 22.8577 36.5079 23.8534C36.6119 24.8491 36.487 25.8547 36.1421 26.798C35.7971 27.7413 35.2409 28.5988 34.5132 29.3088L29.5985 34.0725L24.6837 29.3088C23.9552 28.6057 23.3976 27.754 23.0515 26.8156C22.7054 25.8773 22.5795 24.876 22.683 23.8846Z" fill="white"/>
</svg>
