<svg width="21" height="21" viewBox="0 0 21 21" fill="none" xmlns="http://www.w3.org/2000/svg">
<path d="M17.9246 3.07537C15.9415 1.0922 13.3046 0 10.5 0C7.6954 0 5.05854 1.0922 3.07537 3.07537C1.0922 5.05854 0 7.6954 0 10.5C0 13.3048 1.0922 15.9415 3.07537 17.9246C5.05854 19.9078 7.6954 21 10.5 21C13.3046 21 15.9415 19.9078 17.9246 17.9246C19.9078 15.9415 21 13.3048 21 10.5C21 7.6954 19.9078 5.05854 17.9246 3.07537ZM15.0415 13.5912C15.4419 13.9918 15.4419 14.641 15.0415 15.0414C14.8412 15.2416 14.5788 15.3418 14.3164 15.3418C14.0539 15.3418 13.7915 15.2416 13.5912 15.0414L10.5 11.9501L7.40877 15.0415C7.2085 15.2416 6.94606 15.3418 6.68362 15.3418C6.42119 15.3418 6.15875 15.2416 5.95848 15.0415C5.5581 14.641 5.5581 13.9918 5.95848 13.5914L9.04987 10.5L5.95848 7.40877C5.5581 7.00822 5.5581 6.35902 5.95848 5.95864C6.35902 5.5581 7.00822 5.5581 7.40861 5.95864L10.5 9.04987L13.5912 5.95864C13.9918 5.55826 14.641 5.5581 15.0414 5.95864C15.4419 6.35902 15.4419 7.00822 15.0414 7.40877L11.9501 10.5L15.0415 13.5912Z" fill="#FD5056"/>
</svg>
