<?xml version="1.0" encoding="utf-8"?>
<!-- Generator: Adobe Illustrator 27.3.1, SVG Export Plug-In . SVG Version: 6.00 Build 0)  -->
<svg version="1.1" id="Layer_1" xmlns="http://www.w3.org/2000/svg" xmlns:xlink="http://www.w3.org/1999/xlink" x="0px" y="0px"
	 viewBox="0 0 100 100" style="enable-background:new 0 0 100 100;" xml:space="preserve">
<style type="text/css">
	.st0{fill:#555555;}
</style>
<g>
	<path class="st0" d="M54.2,28.4V20h7.4c3.3,0,4.9-4,2.6-6.3L51.8,1.4c-1.4-1.4-3.8-1.4-5.2,0L34.3,13.7C32,16,33.6,20,36.9,20h7.4
		v8.4c0,2,1.7,3.7,3.7,3.7h2.5C52.5,32.1,54.2,30.5,54.2,28.4z"/>
	<path class="st0" d="M44.3,71.6V80h-7.4c-3.3,0-4.9,4-2.6,6.3l12.3,12.3c1.4,1.4,3.8,1.4,5.2,0l12.3-12.3c2.3-2.3,0.7-6.3-2.6-6.3
		h-7.4l0-8.4c0-2-1.7-3.7-3.7-3.7H48C46,67.9,44.3,69.5,44.3,71.6z"/>
	<path class="st0" d="M6.7,36.8h86.6c0.5,0,0.9-0.4,0.9-0.9v-7.3c0-0.5-0.4-0.9-0.9-0.9H6.7c-0.5,0-0.9,0.4-0.9,0.9v7.3
		C5.8,36.4,6.2,36.8,6.7,36.8z"/>
	<path class="st0" d="M6.7,54.6h86.6c0.5,0,0.9-0.4,0.9-0.9v-7.3c0-0.5-0.4-0.9-0.9-0.9H6.7c-0.5,0-0.9,0.4-0.9,0.9v7.3
		C5.8,54.2,6.2,54.6,6.7,54.6z"/>
	<path class="st0" d="M6.7,72.3h86.6c0.5,0,0.9-0.4,0.9-0.9v-7.3c0-0.5-0.4-0.9-0.9-0.9H6.7c-0.5,0-0.9,0.4-0.9,0.9v7.3
		C5.8,71.9,6.2,72.3,6.7,72.3z"/>
</g>
</svg>
