<?xml version="1.0" encoding="utf-8"?>
<!-- Generator: Adobe Illustrator 27.3.1, SVG Export Plug-In . SVG Version: 6.00 Build 0)  -->
<svg version="1.1" id="Layer_1" xmlns="http://www.w3.org/2000/svg" xmlns:xlink="http://www.w3.org/1999/xlink" x="0px" y="0px"
	 viewBox="0 0 100 100" style="enable-background:new 0 0 100 100;" xml:space="preserve">
<style type="text/css">
	.st0{fill:#555555;}
</style>
<g>
	<path class="st0" d="M39.4,28.6h59c0.5,0,0.9-0.4,0.9-0.9V17.5c0-0.5-0.4-0.9-0.9-0.9h-59c-0.5,0-0.9,0.4-0.9,0.9v10.2
		C38.4,28.2,38.9,28.6,39.4,28.6z"/>
	<path class="st0" d="M39.4,56h59c0.5,0,0.9-0.4,0.9-0.9V44.9c0-0.5-0.4-0.9-0.9-0.9h-59c-0.5,0-0.9,0.4-0.9,0.9v10.2
		C38.4,55.6,38.9,56,39.4,56z"/>
	<path class="st0" d="M39.4,83.4h59c0.5,0,0.9-0.4,0.9-0.9V72.3c0-0.5-0.4-0.9-0.9-0.9h-59c-0.5,0-0.9,0.4-0.9,0.9v10.2
		C38.4,83,38.9,83.4,39.4,83.4z"/>
	<path class="st0" d="M22,58v21.1l7.3-0.2c3.4,0,5.2,4.2,2.7,6.6L19.3,98.2c-1.5,1.5-3.9,1.5-5.4,0L1.1,85.5
		c-2.4-2.4-0.7-6.6,2.7-6.6l7.3,0.2V58c0-1.4,1.2-2.6,2.6-2.6l5.8,0C20.9,55.5,22,56.6,22,58z M11.1,42l0-21.1l-7.3,0.2
		c-3.4,0-5.2-4.2-2.7-6.6L13.9,1.8c1.5-1.5,3.9-1.5,5.4,0L32,14.5c2.4,2.4,0.7,6.6-2.7,6.6L22,20.9V42c0,1.4-1.2,2.6-2.6,2.6h-5.8
		C12.3,44.5,11.1,43.4,11.1,42L11.1,42z"/>
</g>
</svg>
