<svg width="15" height="15" viewBox="0 0 15 15" fill="none" xmlns="http://www.w3.org/2000/svg">
<path id="Icon" d="M7.5 1.5C4.18629 1.5 1.5 4.18629 1.5 7.5C1.5 10.8137 4.18629 13.5 7.5 13.5C10.8137 13.5 13.5 10.8137 13.5 7.5C13.5 4.18629 10.8137 1.5 7.5 1.5ZM0 7.5C0 3.35786 3.35786 0 7.5 0C11.6421 0 15 3.35786 15 7.5C15 11.6421 11.6421 15 7.5 15C3.35786 15 0 11.6421 0 7.5ZM7.5 3C7.91421 3 8.25 3.33579 8.25 3.75V7.18934L10.2803 9.21967C10.5732 9.51256 10.5732 9.98744 10.2803 10.2803C9.98744 10.5732 9.51256 10.5732 9.21967 10.2803L6.96967 8.03033C6.82902 7.88968 6.75 7.69891 6.75 7.5V3.75C6.75 3.33579 7.08579 3 7.5 3Z" fill="#FD5056"/>
</svg>
