<svg width="22" height="21" viewBox="0 0 22 21" fill="none" xmlns="http://www.w3.org/2000/svg">
<g id="World" clip-path="url(#clip0_3553_15090)">
<g id="Group">
<path id="Vector" d="M21.5372 12.1818C22.4662 6.45759 18.5789 1.06412 12.8547 0.135124C7.13054 -0.793875 1.73707 3.09339 0.808077 8.81758C-0.120922 14.5418 3.76634 19.9352 9.49053 20.8642C15.2147 21.7932 20.6082 17.906 21.5372 12.1818Z" fill="#5AB1C7"/>
<path id="Vector_2" d="M17.7817 4.89594C17.8922 4.95121 17.9917 5.01752 18.1022 5.07278C18.2238 5.12805 18.2017 5.07278 18.1906 5.05068C18.2017 5.06173 18.2127 5.07278 18.2127 5.08384C18.2127 5.06173 18.2127 5.05068 18.2459 5.03963V5.02857C18.2348 4.96226 18.2348 4.96226 18.279 4.907C18.268 4.95121 18.2901 4.99542 18.279 5.03963C18.268 5.03963 18.268 5.03963 18.2569 5.05068C18.268 5.117 18.268 5.117 18.268 5.1391C18.2569 5.1391 18.2569 5.1391 18.2459 5.1391C18.279 5.18331 18.3343 5.19436 18.3674 5.22752C18.3674 5.24963 18.3453 5.38226 18.1906 5.44857C18.3785 5.60331 18.5111 5.86857 18.7101 6.24436C18.699 6.21121 18.699 6.21121 18.699 6.20015C18.699 6.20015 18.8759 6.44331 18.8759 6.57594C18.8759 6.57594 18.8759 6.57594 18.8648 6.587C18.8095 6.55384 18.8206 6.47647 18.7764 6.44331C18.7764 6.44331 18.7764 6.45436 18.7653 6.45436C18.7653 6.47647 18.7874 6.49857 18.7874 6.52068C18.7764 6.50963 18.7764 6.50963 18.7543 6.50963C18.7543 6.54278 18.7874 6.57594 18.7653 6.62015C18.7432 6.62015 18.699 6.57594 18.7211 6.55384C18.7211 6.55384 18.7101 6.54279 18.699 6.54279C18.688 6.55384 18.6769 6.56489 18.7101 6.63121C18.688 6.63121 18.688 6.62015 18.6548 6.63121C18.6217 6.63121 18.6217 6.63121 18.5995 6.62015C18.5995 6.64226 18.6106 6.69752 18.5995 6.76384C18.5774 6.85226 18.5332 6.78594 18.5222 6.76384C18.5111 6.74173 18.5001 6.73068 18.478 6.69752C18.478 6.71963 18.489 6.74173 18.489 6.76384C18.489 6.76384 18.489 6.77489 18.489 6.78594C18.5001 6.83015 18.5001 6.86331 18.5111 6.90752C18.478 6.87436 18.4559 6.87436 18.4448 6.88542C18.4338 6.89647 18.4338 6.91857 18.4338 6.94068C18.4338 6.98489 18.4338 6.99594 18.4227 7.01805C18.3564 6.95173 18.3122 6.90752 18.2348 6.88542C18.2901 6.88542 18.3232 6.84121 18.3564 6.76384C18.3895 6.69752 18.4006 6.66436 18.4338 6.64226C18.3564 6.54278 18.1022 6.64226 18.069 6.73068C18.0911 6.74173 18.1022 6.74173 18.1243 6.76384C18.2459 6.86331 18.3232 7.06226 18.3343 7.13963C18.3564 7.2391 18.3122 7.22805 18.3011 7.217C18.2017 7.13963 18.1574 7.0291 18.0911 6.94068C18.0911 6.94068 18.0911 6.94068 18.0801 6.94068C18.0801 6.94068 18.0801 6.95173 18.0801 6.97384C18.069 6.94068 18.058 6.92963 18.0248 6.89647C17.9806 6.85226 17.9695 6.83015 17.9917 6.76384C18.0138 6.68647 18.1574 6.29963 18.4117 6.44331C18.268 6.15594 18.3343 6.15594 18.3674 6.15594C18.4448 6.15594 18.4448 5.80226 18.1574 5.53699C18.1906 5.5591 18.2348 5.58121 18.268 5.60331C18.2459 5.58121 18.2459 5.58121 18.1906 5.50384C18.1906 5.50384 18.1906 5.50384 18.1906 5.51489C18.1795 5.52594 18.1795 5.52594 18.1353 5.51489C18.1353 5.51489 17.8369 5.36015 18.0027 5.27173C17.9806 5.26068 17.9585 5.24963 17.9474 5.22752C17.8922 5.1391 17.8701 5.05068 17.8148 4.96226C17.8038 4.91805 17.7927 4.907 17.7817 4.89594ZM7.0385 1.43647C7.07165 1.43647 7.10481 1.41436 7.18218 1.38121C7.28165 1.337 7.29271 1.32594 7.30376 1.337C7.30376 1.34805 7.30376 1.37015 7.22639 1.40331C7.23744 1.41436 7.25955 1.41436 7.32586 1.40331C7.37007 1.39226 7.38113 1.39226 7.40323 1.39226C7.41429 1.3591 7.41429 1.3591 7.40323 1.337C7.38113 1.31489 7.35902 1.31489 7.33692 1.29278C7.38113 1.29278 7.4585 1.29278 7.59113 1.25963C7.70165 1.23752 7.6685 1.18226 7.6685 1.18226C7.65744 1.17121 7.62429 1.17121 7.61323 1.17121C7.50271 1.18226 7.40323 1.21542 7.37007 1.22647C7.35902 1.22647 7.33692 1.22647 7.32586 1.23752C7.31481 1.23752 7.31481 1.24857 7.31481 1.24857C7.32586 1.24857 7.32586 1.24857 7.34797 1.25963C7.33692 1.25963 7.33692 1.27068 7.32586 1.27068C7.29271 1.25963 7.2706 1.27068 7.22639 1.30384C7.22639 1.28173 7.20429 1.27068 7.21534 1.25963C7.20429 1.27068 7.16007 1.28173 7.12692 1.27068H7.11586C7.09376 1.28173 7.09376 1.30384 7.07165 1.31489C7.07165 1.30384 7.07165 1.30384 7.07165 1.30384C7.0606 1.30384 7.0385 1.337 7.0385 1.34805C7.04955 1.3591 7.04955 1.34805 7.0606 1.32594C7.10481 1.337 7.14902 1.31489 7.19323 1.337C6.99429 1.41436 6.99429 1.41436 6.99429 1.42542C6.98323 1.42542 7.0385 1.43647 7.0385 1.43647ZM4.52955 2.37594C4.59586 2.33173 4.87218 2.14384 4.88323 2.14384L4.87218 2.15489C4.90534 2.15489 4.91639 2.15489 5.00481 2.09963C5.09323 2.04436 5.22586 2.04436 5.29218 1.93384C5.27007 1.93384 5.24797 1.94489 5.21481 1.95594C5.25902 1.93384 5.30323 1.90068 5.3585 1.87857C5.33639 1.90068 5.31429 1.91173 5.30323 1.93384C5.33639 1.93384 5.43586 1.86752 5.44692 1.85647C5.43586 1.85647 5.42481 1.86752 5.41376 1.86752C5.44692 1.84542 5.46902 1.83436 5.50218 1.81226C5.49113 1.81226 5.48007 1.82331 5.46902 1.82331C5.46902 1.82331 5.46902 1.82331 5.5906 1.70173C5.60165 1.70173 5.63481 1.71278 5.65692 1.66857V1.67963C5.70113 1.69068 5.72323 1.64647 5.75639 1.63542C5.73429 1.63542 5.73429 1.63542 5.70113 1.65752C5.7785 1.60226 5.78955 1.60226 5.84481 1.59121C5.92218 1.5691 5.97744 1.49173 6.05481 1.45857H6.04376V1.44752C6.08797 1.41436 6.15429 1.42542 6.1985 1.39226H6.18744C6.20955 1.38121 6.2206 1.38121 6.24271 1.37015C6.23165 1.37015 6.23165 1.37015 6.18744 1.38121C6.36429 1.29278 6.55218 1.24857 6.72902 1.17121C6.74007 1.17121 6.76218 1.16015 6.77323 1.1491C6.70692 1.127 6.70692 1.127 6.48586 1.21542C6.55218 1.11594 6.72902 1.20436 6.77323 1.04963C6.76218 1.04963 6.75113 1.03857 6.74007 1.03857C6.69586 1.04963 6.62955 1.06068 6.59639 1.07173H6.58534H6.57429C6.57429 1.07173 6.58534 1.07173 6.58534 1.06068C6.50797 1.08278 6.50797 1.08278 6.4306 1.127C6.44165 1.11594 6.44165 1.11594 6.47481 1.09384C6.45271 1.10489 6.4306 1.11594 6.41955 1.127C6.41955 1.127 6.4306 1.127 6.4306 1.11594C6.41955 1.11594 6.4085 1.127 6.39744 1.127C6.4085 1.127 6.41955 1.11594 6.4306 1.10489C6.4085 1.11594 6.37534 1.127 6.34218 1.1491C5.85586 1.40331 5.40271 1.67963 4.97165 2.00015C4.7285 2.177 4.48534 2.36489 4.26429 2.56384C4.36376 2.47542 4.56271 2.30963 4.61797 2.27647C4.59586 2.33173 4.56271 2.35384 4.52955 2.37594ZM17.7927 4.78542C17.7595 4.74121 17.7374 4.70805 17.5938 4.58647C17.4722 4.47594 17.4501 4.45384 17.439 4.42068V4.40963C17.4611 4.40963 17.4722 4.39857 17.5385 4.42068C17.5164 4.36542 17.5053 4.33226 17.428 4.26594C17.3064 4.16647 17.1517 4.12226 17.0301 4.03384C16.8974 3.93436 16.809 3.81278 16.6764 3.71331C16.6322 3.68015 16.5769 3.647 16.5217 3.647C16.5106 3.647 16.4995 3.647 16.4885 3.65805C16.5217 3.70226 16.588 3.72436 16.6211 3.76857C16.809 3.89015 17.2401 4.34331 17.439 4.55331C17.6159 4.74121 17.6601 4.78542 17.7043 4.80752C17.6711 4.76331 17.649 4.73015 17.6269 4.68594C17.638 4.68594 17.638 4.68594 17.6932 4.7191C17.7374 4.76331 17.7817 4.78542 17.7927 4.78542ZM8.3206 1.86752C8.3206 1.87857 8.3206 1.87857 8.35376 1.88963C8.35376 1.88963 8.36481 1.87857 8.36481 1.86752L8.35376 1.85647L8.36481 1.84542C8.43113 1.94489 8.5085 1.967 8.60797 1.90068C8.58587 1.85647 8.54165 1.81226 8.51955 1.757C8.58586 1.73489 8.65218 1.67963 8.67429 1.62436C8.70744 1.64647 8.75165 1.61331 8.86218 1.55805C8.97271 1.49173 9.10534 1.50278 9.22692 1.46963C9.23797 1.46963 9.26008 1.45857 9.27113 1.44752C9.19376 1.43647 9.11639 1.43647 9.03902 1.43647C8.99481 1.43647 8.97271 1.43647 8.9285 1.44752C8.90639 1.45857 8.88429 1.48068 8.86218 1.48068C8.77376 1.51384 8.68534 1.52489 8.60797 1.55805C8.61902 1.58015 8.61902 1.58015 8.55271 1.61331C8.55271 1.61331 8.28744 1.7791 8.28744 1.81226C8.30955 1.82331 8.33165 1.82331 8.35376 1.83436C8.33165 1.85647 8.33165 1.85647 8.3206 1.86752ZM3.82218 3.77963C3.74481 3.83489 3.74481 3.83489 3.60113 3.98963C3.60113 3.98963 3.59008 4.03384 3.62323 4.03384C3.64534 4.03384 3.6785 4.01173 3.7006 4.00068C3.68955 4.01173 3.6785 4.02278 3.66744 4.02278C3.83323 3.94542 3.86639 3.97857 3.87744 4.02278C3.89955 3.95647 3.96586 3.93436 4.01008 3.8791C4.06534 3.81278 4.01007 3.82384 3.98797 3.82384C3.97692 3.82384 3.97692 3.82384 3.96586 3.82384C3.99902 3.79068 4.04323 3.73542 4.03218 3.71331C4.07639 3.72436 4.13165 3.44805 4.13165 3.437L4.1206 3.42594C4.20902 3.38173 4.36376 3.26015 4.36376 3.20489C4.35271 3.19384 4.3306 3.20489 4.25323 3.23805C4.38586 3.13857 4.38586 3.13857 4.41902 3.10542C4.40797 3.11647 4.39692 3.12752 4.38586 3.13857C4.27534 3.227 4.18692 3.2491 4.16481 3.2491C4.16481 3.23805 4.17586 3.227 4.18692 3.21594C4.23113 3.18278 4.26429 3.16068 4.28639 3.12752C4.26429 3.12752 4.25323 3.13857 4.22007 3.17173C4.16481 3.21594 4.16481 3.21594 4.16481 3.227C4.13165 3.26015 4.10955 3.29331 4.0985 3.29331C4.1206 3.27121 4.14271 3.2491 4.16481 3.227C4.17586 3.227 4.17586 3.227 4.17586 3.227C4.13165 3.27121 4.10955 3.30436 4.10955 3.30436C4.1206 3.30436 4.1206 3.30436 4.13165 3.28226C4.14271 3.28226 4.14271 3.28226 4.16481 3.26015C4.16481 3.26015 4.01007 3.39278 3.99902 3.40384C3.99902 3.40384 4.08744 3.34857 4.1206 3.32647C4.0985 3.34857 4.0985 3.34857 4.03218 3.40384C4.03218 3.40384 4.04323 3.39278 4.05429 3.39278C3.98797 3.437 3.98797 3.437 3.95481 3.48121C3.97692 3.47015 3.98797 3.4591 3.99902 3.44805C3.98797 3.4591 3.96586 3.48121 3.95481 3.51436C3.96586 3.51436 3.97692 3.51436 4.05429 3.437C3.98797 3.50331 3.97692 3.51436 3.97692 3.54752C3.98797 3.55857 3.98797 3.55857 4.02113 3.55857C3.98797 3.58068 3.94376 3.63594 3.93271 3.65805H3.94376C3.9106 3.72436 3.8885 3.73542 3.82218 3.77963ZM18.3232 4.68594C18.3232 4.67489 18.3122 4.66384 18.3011 4.63068C18.3011 4.64173 18.3011 4.65279 18.3011 4.66384H18.2901C18.3011 4.67489 18.3232 4.697 18.3232 4.68594ZM4.9606 2.29857C4.9385 2.30963 4.91639 2.29857 4.88323 2.29857C4.85007 2.30963 4.82797 2.33173 4.79481 2.36489C4.81692 2.34278 4.82797 2.33173 4.82797 2.33173C4.81692 2.32068 4.76165 2.35384 4.68429 2.4091C4.80586 2.30963 4.81692 2.28752 4.82797 2.27647C4.80586 2.28752 4.78376 2.30963 4.7506 2.34278C4.76165 2.32068 4.76165 2.32068 4.76165 2.32068C4.76165 2.32068 4.7506 2.32068 4.69534 2.37594C4.69534 2.37594 4.68429 2.37594 4.65113 2.39805C4.65113 2.39805 4.65113 2.39805 4.66218 2.39805V2.4091C4.66218 2.4091 4.65113 2.42015 4.64007 2.42015V2.43121C4.64007 2.43121 4.55165 2.46436 4.55165 2.48647C4.55165 2.48647 4.55165 2.48647 4.56271 2.48647C4.43007 2.58594 4.48534 2.597 4.48534 2.597C4.50744 2.60805 4.60692 2.57489 4.69534 2.51963C4.71744 2.50857 4.73955 2.49752 4.7506 2.47542C4.78376 2.45331 4.80586 2.42015 4.83902 2.4091C4.85007 2.39805 4.86113 2.37594 4.9606 2.29857ZM17.7595 6.56489C17.7595 6.55384 17.7595 6.55384 17.7595 6.56489C17.7595 6.55384 17.7595 6.55384 17.7595 6.56489ZM4.20902 2.64121C4.22007 2.63015 4.24218 2.6191 4.26429 2.597C4.24218 2.6191 4.22007 2.63015 4.20902 2.64121ZM10.2659 1.24857C10.299 1.23752 10.3432 1.22647 10.4095 1.22647C10.3653 1.22647 10.3543 1.24857 10.3432 1.25963C10.4206 1.28173 10.4759 1.32594 10.5532 1.34805C10.6195 1.3591 10.6527 1.337 10.6748 1.32594C10.6748 1.32594 10.6859 1.31489 10.708 1.29278C10.708 1.29278 10.708 1.29278 10.6859 1.28173C10.6638 1.27068 10.6638 1.25963 10.6859 1.24857C10.6085 1.24857 10.5753 1.23752 10.5311 1.21542C10.4869 1.19331 10.4427 1.18226 10.3543 1.18226C10.3211 1.18226 10.299 1.18226 10.2769 1.18226C10.2769 1.20436 10.288 1.22647 10.2438 1.21542C10.2769 1.22647 10.288 1.22647 10.3211 1.22647C10.288 1.22647 10.2659 1.22647 10.2438 1.22647C10.2327 1.23752 10.2548 1.25963 10.2659 1.24857ZM12.9185 1.53594C12.9074 1.53594 12.9074 1.53594 12.9185 1.53594C12.9295 1.53594 12.9627 1.53594 12.9848 1.547C13.0732 1.55805 13.1617 1.59121 13.2501 1.59121C13.3053 1.60226 13.3495 1.59121 13.3606 1.58015C13.3495 1.55805 13.2059 1.53594 13.1948 1.53594C13.1617 1.53594 13.1174 1.52489 13.0843 1.51384C13.018 1.51384 12.9627 1.45857 12.8964 1.46963C12.8743 1.46963 12.8743 1.48068 12.8743 1.48068C12.8853 1.50278 12.9074 1.51384 12.9185 1.53594ZM10.7743 1.37015C10.8848 1.37015 10.9511 1.34805 10.9843 1.32594C10.9843 1.32594 10.9953 1.32594 10.9953 1.31489C10.9622 1.28173 10.8627 1.24857 10.8074 1.24857C10.7301 1.24857 10.719 1.337 10.7411 1.34805C10.7522 1.37015 10.7632 1.37015 10.7743 1.37015ZM13.6922 1.58015C13.6922 1.5691 13.6922 1.5691 13.6922 1.58015C13.6148 1.52489 13.5485 1.50278 13.4711 1.51384C13.438 1.51384 13.4159 1.52489 13.3717 1.53594C13.3827 1.53594 13.4048 1.547 13.449 1.55805C13.5485 1.58015 13.6701 1.62436 13.6922 1.58015ZM18.1574 4.33226C18.1574 4.32121 18.1574 4.33226 18.1574 4.33226C18.1464 4.31015 18.1243 4.277 18.1132 4.277C18.1132 4.28805 18.1353 4.31015 18.1353 4.32121C18.1353 4.32121 18.1464 4.33226 18.1574 4.33226ZM18.2459 4.49805C18.2459 4.487 18.2348 4.487 18.2348 4.487C18.2238 4.5091 18.2459 4.49805 18.2459 4.49805ZM18.3232 4.77436C18.3122 4.77436 18.3232 4.77436 18.3232 4.77436C18.3122 4.76331 18.3122 4.76331 18.3122 4.76331C18.3011 4.76331 18.3011 4.77436 18.3011 4.79647C18.3011 4.79647 18.3011 4.79647 18.3011 4.78542C18.3011 4.78542 18.3011 4.78542 18.3232 4.85173C18.3343 4.85173 18.3453 4.82963 18.3232 4.77436ZM18.268 4.55331C18.268 4.55331 18.279 4.55331 18.268 4.55331C18.279 4.54226 18.279 4.54226 18.268 4.55331C18.268 4.54226 18.2569 4.53121 18.2569 4.53121L18.268 4.55331ZM8.68534 1.22647L8.7406 1.23752C8.75165 1.23752 8.77376 1.23752 8.77376 1.23752C8.77376 1.22647 8.77376 1.22647 8.77376 1.22647H8.78481C8.82902 1.24857 8.82902 1.24857 8.9285 1.20436C8.93955 1.23752 8.93955 1.23752 9.10534 1.18226C9.10534 1.18226 9.10534 1.19331 9.09429 1.19331C9.08323 1.20436 9.08323 1.20436 9.08323 1.20436C9.08323 1.20436 9.09429 1.20436 9.11639 1.20436V1.19331C9.11639 1.18226 9.11639 1.18226 9.11639 1.17121C9.09429 1.16015 9.09429 1.16015 9.03902 1.17121C9.05007 1.16015 9.05008 1.16015 9.06113 1.1491C9.02797 1.1491 8.99481 1.16015 8.96165 1.17121C8.96165 1.17121 8.96165 1.18226 8.99481 1.18226C8.97271 1.19331 8.9506 1.19331 8.93955 1.19331C8.9285 1.19331 8.90639 1.19331 8.84008 1.21542V1.22647C8.82902 1.22647 8.81797 1.22647 8.80692 1.22647C8.82902 1.21542 8.84008 1.21542 8.86218 1.20436C8.84008 1.19331 8.81797 1.19331 8.78481 1.19331C8.79586 1.19331 8.82902 1.18226 8.84008 1.18226C8.86218 1.18226 8.90639 1.20436 8.91744 1.18226C8.90639 1.18226 8.88428 1.18226 8.87323 1.17121C8.84008 1.16015 8.82902 1.16015 8.82902 1.16015C8.82902 1.16015 8.82902 1.16015 8.82902 1.18226C8.78481 1.19331 8.7406 1.21542 8.68534 1.20436H8.67429C8.67429 1.21542 8.67429 1.21542 8.67429 1.21542C8.67429 1.21542 8.67429 1.21542 8.65218 1.21542C8.65218 1.21542 8.65218 1.21542 8.65218 1.22647C8.64113 1.22647 8.61902 1.21542 8.58586 1.22647C8.58586 1.23752 8.58586 1.23752 8.58586 1.24857C8.68534 1.22647 8.68534 1.22647 8.68534 1.22647ZM18.1906 4.38752C18.1906 4.37647 18.1795 4.37647 18.1795 4.37647C18.1795 4.37647 18.1795 4.38752 18.1906 4.40963C18.1906 4.40963 18.1906 4.39857 18.1906 4.38752ZM8.33165 1.20436C8.35376 1.20436 8.39797 1.19331 8.44218 1.20436C8.40902 1.20436 8.40902 1.20436 8.40902 1.21542C8.38692 1.21542 8.37586 1.22647 8.36481 1.22647C8.37586 1.24857 8.40902 1.24857 8.47534 1.23752C8.47534 1.23752 8.46429 1.23752 8.45323 1.24857C8.46429 1.24857 8.46429 1.24857 8.47534 1.24857C8.46429 1.25963 8.45323 1.27068 8.48639 1.27068C8.5085 1.27068 8.5306 1.25963 8.54165 1.25963C8.54165 1.25963 8.54165 1.25963 8.55271 1.25963C8.5306 1.24857 8.5085 1.24857 8.48639 1.25963C8.49744 1.25963 8.5085 1.25963 8.5085 1.24857H8.49744C8.51955 1.23752 8.54165 1.23752 8.56376 1.22647C8.56376 1.21542 8.56376 1.18226 8.48639 1.19331C8.43113 1.19331 8.37586 1.21542 8.30955 1.23752C8.3206 1.20436 8.33165 1.20436 8.33165 1.20436ZM17.3174 18.8775C17.2843 18.8996 17.2511 18.9217 17.218 18.9328C17.3174 18.8554 17.3174 18.8554 17.3285 18.8444C17.3174 18.8444 17.3064 18.8444 17.2953 18.8554C17.1074 18.9549 16.9417 19.0875 16.7427 19.1759C16.4664 19.2975 16.4664 19.2975 16.389 19.3417C16.2343 19.4302 16.2232 19.4523 16.2232 19.4633C16.2895 19.4854 17.0632 19.0544 17.2732 18.9107C17.2843 18.8996 17.3064 18.8886 17.3174 18.8775ZM17.229 18.9549C17.2732 18.9549 17.7153 18.6565 17.859 18.5349C17.859 18.5349 17.859 18.5349 17.8701 18.5238C17.8369 18.5349 17.8148 18.568 17.7817 18.5791C17.7927 18.568 17.7927 18.568 17.9695 18.4023C17.9364 18.4244 17.9143 18.4465 17.8811 18.4686C17.8922 18.4575 17.9032 18.4465 17.9143 18.4354C17.7485 18.5902 17.229 18.9549 17.229 18.9549ZM18.2017 18.1812C18.1132 18.2586 18.0359 18.3359 17.9474 18.4133C17.9585 18.4023 17.9695 18.4023 17.9806 18.3912L17.9695 18.4023C18.058 18.3249 18.1353 18.2475 18.2238 18.1702C18.2127 18.1702 18.2127 18.1702 18.2017 18.1812ZM3.45744 4.01173C3.47955 4.00068 3.62323 3.93436 3.84429 3.6691C3.86639 3.63594 3.93271 3.55857 3.8885 3.55857H3.87744C3.78902 3.59173 3.73376 3.65805 3.64534 3.69121C3.63429 3.73542 3.61218 3.74647 3.57902 3.76857C3.59007 3.79068 3.56797 3.82384 3.4906 3.90121C3.45744 3.94542 3.33586 4.067 3.45744 4.01173ZM16.5659 18.3028C16.5659 18.3028 16.5659 18.3138 16.5659 18.3028C16.5659 18.3028 16.5659 18.3138 16.5659 18.3028ZM18.7211 16.9986C18.7211 16.9875 18.7322 16.9875 18.7322 16.9765C18.7322 16.9875 18.7322 16.9875 18.7211 16.9986ZM17.9695 18.4023C17.9585 18.4133 17.9364 18.4354 17.9253 18.4465C17.9474 18.4244 17.9585 18.4133 17.9695 18.4023ZM16.389 18.8886C16.3669 18.8886 16.3338 18.8886 16.3117 18.8886C16.2895 18.8886 16.2343 18.8886 16.1459 18.9549C16.0464 19.0212 15.958 19.1096 15.8585 19.187C15.9801 19.1649 15.9911 19.1538 16.1238 19.0654C16.2564 18.977 16.3559 18.8996 16.389 18.8886C16.389 18.8886 16.378 18.8886 16.389 18.8886ZM7.46955 7.85805C7.50271 7.85805 7.51376 7.85805 7.51376 7.85805C7.51376 7.85805 7.50271 7.84699 7.49165 7.84699C7.4806 7.84699 7.46955 7.84699 7.46955 7.85805ZM3.43534 5.5591C3.43534 5.58121 3.42429 5.59226 3.41323 5.64752C3.38007 5.74699 3.32481 5.92384 3.36902 5.89068C3.41323 5.85752 3.4906 5.72489 3.53481 5.63647C3.57902 5.52594 3.55692 5.53699 3.54586 5.53699C3.53481 5.53699 3.52376 5.537 3.47955 5.57015C3.43534 5.59226 3.43534 5.59226 3.43534 5.5591ZM3.52376 5.50384C3.53481 5.48173 3.59007 5.41542 3.63429 5.31594C3.65639 5.28278 3.66744 5.24963 3.66744 5.23857H3.65639C3.59008 5.28278 3.53481 5.40436 3.53481 5.40436C3.51271 5.45963 3.51271 5.48173 3.52376 5.50384ZM17.9143 10.9528C17.9143 10.8754 17.8922 10.8312 17.8811 10.798C17.8811 10.798 17.8811 10.8091 17.8701 10.8091C17.848 10.8533 17.8259 10.9196 17.8369 10.9417C17.848 10.9417 17.848 10.9417 17.8701 10.9086C17.7817 11.0523 17.6822 11.207 17.6711 11.218L17.6601 11.2402C17.6269 11.2844 17.6159 11.3175 17.5938 11.3838C17.7153 11.3175 17.9032 11.1296 17.9143 10.9528ZM18.5111 12.6659C18.5111 12.6438 18.5111 12.6217 18.5111 12.5996C18.489 12.5996 18.4669 12.6107 18.4559 12.6107C18.3011 12.6438 18.1464 12.6549 18.0027 12.688C17.9585 12.6991 17.9253 12.7212 17.9143 12.7433C17.9032 12.7654 17.8922 12.7765 17.8922 12.7875C17.859 12.8649 17.848 12.9423 17.8148 13.0196C17.7706 13.1633 17.649 13.2849 17.6048 13.4286C17.5606 13.5833 17.5938 13.738 17.5717 13.8817C17.6269 13.8707 17.6601 13.8596 17.7043 13.8817C17.7043 13.8817 17.7927 13.4617 17.859 13.3954C17.8922 13.4396 17.8922 13.4507 17.8811 13.5833C17.859 13.7712 17.9585 13.738 17.9806 13.727C17.9695 13.7491 17.9474 13.8044 17.9585 13.8817C17.9585 13.8817 17.9695 13.8817 17.9695 13.8928C18.0248 13.8596 18.0801 13.7049 18.0801 13.6496C18.058 13.6607 18.0469 13.6607 18.0248 13.6828C18.0469 13.528 17.9806 13.3733 17.9806 13.2186C18.0801 13.3402 18.1353 13.0528 18.2459 13.0196C18.1243 12.9975 17.9917 13.0749 17.859 13.0086C17.8038 12.9865 17.8259 12.9423 17.9364 12.8759C18.0469 12.7986 18.1132 12.8096 18.2569 12.8207C18.3785 12.8317 18.3895 12.8317 18.4338 12.7765C18.4227 12.7875 18.4227 12.7986 18.4117 12.7986C18.5001 12.6991 18.5001 12.6991 18.5111 12.6659ZM18.7322 13.4175C18.6769 13.4175 18.5995 13.4507 18.6659 13.5059C18.6769 13.517 18.688 13.517 18.688 13.528C18.688 13.528 18.688 13.528 18.699 13.528C18.7985 13.5833 18.898 13.5833 18.9201 13.5391C18.9422 13.5059 18.909 13.4728 18.909 13.4728C18.909 13.4838 18.9201 13.4949 18.9311 13.5059C18.8648 13.4286 18.7543 13.4175 18.7322 13.4175ZM18.2348 13.0417C18.2238 13.0417 18.2348 13.0417 18.2348 13.0417C18.2238 13.0417 18.2348 13.0417 18.2348 13.0417ZM18.1685 10.9638C18.1906 11.0191 18.2901 10.9307 18.2901 10.9307C18.3122 10.9196 18.3122 10.8975 18.3232 10.8865C18.3232 10.8644 18.3122 10.8533 18.2901 10.8202C18.2348 10.7538 18.2127 10.7317 18.2017 10.7096C18.2017 10.7096 18.1906 10.7096 18.1906 10.6986C18.1906 10.7096 18.1906 10.7207 18.1795 10.7538C18.1685 10.8202 18.1574 10.9307 18.1685 10.9638ZM17.859 14.3459L17.9032 14.357V14.368C17.8922 14.368 17.8701 14.3791 17.848 14.3791C17.859 14.3902 17.859 14.3902 17.8922 14.4012C17.9253 14.3902 17.9585 14.3791 17.9917 14.368C17.9917 14.368 17.9917 14.3791 17.9806 14.3902C17.9917 14.3902 18.0138 14.3902 18.0248 14.3791C18.0359 14.368 18.0359 14.357 18.0469 14.3459H18.058C18.058 14.3459 18.058 14.3459 18.0469 14.3459C18.0359 14.3459 18.0138 14.357 18.0027 14.3459C17.9695 14.3459 17.9474 14.357 17.9364 14.357C17.9032 14.2907 17.848 14.3349 17.859 14.3459C17.7595 14.3128 17.5938 14.3238 17.5164 14.3349C17.4611 14.3459 17.4169 14.3791 17.3617 14.3902C17.3174 14.4012 17.2843 14.3791 17.2511 14.3791C17.2622 14.3902 17.2622 14.4012 17.2843 14.4012C17.2511 14.4233 17.2401 14.4123 17.2069 14.368C17.1406 14.368 17.1185 14.3791 17.1074 14.3791C17.0853 14.3238 17.0632 14.3017 17.0411 14.3017C16.9859 14.3238 17.019 14.368 17.0743 14.4344C17.1627 14.4565 17.2511 14.4123 17.3395 14.4344C17.3174 14.368 17.649 14.4012 17.6601 14.4012V14.4123C17.7264 14.4012 17.7927 14.368 17.859 14.3459ZM16.179 14.2575C15.9911 14.2133 15.8806 14.1802 15.6927 14.0917C15.7922 14.0586 15.8585 13.9923 15.9469 13.948C16.1017 13.9259 16.1901 14.0807 16.3338 14.0807C16.4553 14.0807 16.5769 14.0144 16.7095 14.0365C16.7206 14.0365 16.7317 14.0365 16.7427 14.0365C16.8311 14.0586 16.8422 14.0917 16.8532 14.1359C16.809 14.1691 16.7538 14.1912 16.6764 14.1691C16.7095 14.2244 16.7206 14.2354 16.8311 14.2575C17.008 14.2796 16.9859 14.357 16.9748 14.368C16.9748 14.368 16.9748 14.3791 16.9638 14.3791C16.9417 14.4012 16.8311 14.4454 16.8311 14.3349C16.809 14.4123 16.6543 14.368 16.179 14.2575ZM16.1901 14.2575C16.2011 14.2575 16.2122 14.2575 16.2122 14.2575C16.2122 14.2465 16.179 14.2465 16.1901 14.2575C16.179 14.2465 16.179 14.2465 16.1901 14.2575ZM18.3011 14.3349C18.3122 14.3128 18.2901 14.3128 18.268 14.3238C18.0027 14.3902 17.8259 14.6223 17.7817 14.6996C17.7927 14.6996 17.8369 14.6775 17.9585 14.6223C18.069 14.5559 18.279 14.3902 18.3011 14.3349ZM17.2069 13.5612C17.2069 13.5612 17.3064 13.528 17.229 13.6275C17.2511 13.6054 17.2843 13.5612 17.2953 13.528C17.3395 13.4286 17.3285 13.318 17.3727 13.2296C17.428 13.1191 17.5274 13.0307 17.5827 12.9091C17.6159 12.8317 17.6159 12.7875 17.6159 12.7323C17.6822 12.8207 17.7153 12.7654 17.7153 12.7433C17.7374 12.677 17.7264 12.5554 17.5717 12.3233C17.5938 12.3344 17.5938 12.3344 17.6048 12.3454C17.6048 12.3454 17.6048 12.3454 17.5495 12.257C17.5717 12.257 17.638 12.257 17.6269 12.1796C17.6269 12.1796 17.6269 12.1907 17.638 12.1907H17.649C17.649 12.1796 17.649 12.1575 17.638 12.1244C17.6932 12.1796 17.7264 12.1133 17.7264 12.0691C17.7264 12.058 17.7153 12.0359 17.7153 12.0249C17.7374 12.0028 17.8811 11.8259 17.8038 11.8259C17.7706 11.8259 17.7153 11.848 17.6932 11.8591C17.7153 11.848 17.7153 11.848 17.7264 11.837C17.7043 11.8259 17.7043 11.8259 17.6601 11.837C17.7153 11.7154 17.6269 11.6602 17.6048 11.6602C17.5827 11.6712 17.5827 11.6712 17.5717 11.6823V11.6712C17.5717 11.6712 17.4059 11.6823 17.3506 12.0802C17.3506 12.047 17.3395 12.0359 17.3174 12.0138C17.2843 12.0691 17.2732 12.1133 17.2622 12.1796C17.2069 12.1686 17.229 12.0912 17.1738 12.0802C17.1074 12.2459 16.8311 12.478 16.798 12.4228V12.4117C16.7648 12.5002 16.7427 12.5554 16.7427 12.6549C16.6874 12.6107 16.5659 12.6328 16.5769 12.5333C16.4774 12.6328 16.4443 12.6659 16.4553 12.8649C16.4553 12.8759 16.5438 13.5059 16.6543 13.5059C16.6874 13.5059 16.7206 13.4507 16.7317 13.4286C16.7538 13.5391 16.9859 13.5502 17.0522 13.5059C16.9859 13.6496 17.1406 13.5944 17.2069 13.5612ZM16.8422 8.76436C16.8422 8.76436 16.8422 8.77542 16.8311 8.77542L16.8422 8.76436ZM17.6822 8.39963C17.7264 8.32226 17.7374 8.2891 17.7374 8.25594C17.7374 8.25594 17.7374 8.25594 17.7374 8.24489C17.7485 8.25594 17.7595 8.27805 17.7595 8.32226C17.7595 8.37752 17.7485 8.45489 17.7374 8.52121C17.7153 8.64278 17.7043 8.7091 17.7264 8.76436C17.6932 8.72015 17.6932 8.72015 17.6601 8.69805C17.649 8.68699 17.649 8.687 17.649 8.687C17.649 8.687 17.6601 8.68699 17.6601 8.69805C17.5717 8.62068 17.6048 8.53226 17.6822 8.39963ZM17.6601 8.72015L17.638 8.69805L17.6601 8.72015ZM17.6711 8.72015C17.6601 8.7091 17.6601 8.7091 17.6711 8.72015V8.72015ZM17.7374 8.80857C17.7264 8.79752 17.7153 8.77542 17.7043 8.76436C17.7153 8.78647 17.7153 8.79752 17.7374 8.80857ZM15.7148 14.0696C15.7038 14.0586 15.7038 14.0586 15.7038 14.0586L15.7148 14.0696ZM14.5432 9.86963C14.5322 9.85857 14.5322 9.84752 14.5211 9.83647C14.3443 9.95805 14.3443 9.95805 14.289 9.89173C14.2117 9.79226 14.2006 9.64857 14.1895 9.58226C14.1453 9.28384 13.9022 9.107 13.7585 8.87489C13.7364 8.84173 13.7253 8.80857 13.7032 8.77542C13.6922 8.75331 13.659 8.7091 13.6369 8.687C13.6148 8.687 13.5817 8.68699 13.5485 8.69805C13.5374 8.81963 13.5374 8.81963 13.4822 8.87489C13.4711 8.85279 13.449 8.83068 13.438 8.79752C13.4269 8.81963 13.4048 8.84173 13.3827 8.85278C13.3606 8.84173 13.3274 8.84173 13.3053 8.84173C13.2943 8.85278 13.2832 8.86384 13.2832 8.87489C13.2722 8.86384 13.2611 8.85278 13.2611 8.85278C13.2501 8.86384 13.239 8.86384 13.228 8.87489C13.2169 8.85279 13.1948 8.83068 13.1948 8.80857C13.0069 9.25068 12.4985 9.41647 12.2995 9.85857C12.1117 10.2786 12.2332 10.7649 12.0232 11.1849C11.9901 11.2512 11.9569 11.3396 11.8906 11.3728C11.6474 11.5165 10.5422 9.527 10.8959 8.87489C10.8848 8.86384 10.8738 8.85278 10.8627 8.85278C10.8627 8.83068 10.8517 8.79752 10.8406 8.77542C10.8295 8.77542 10.8185 8.76436 10.8074 8.76436C10.8185 8.77542 10.8295 8.79752 10.8295 8.80857C10.8627 8.93015 10.6969 9.05173 10.5974 9.04068C10.4206 9.01857 10.4538 8.80857 10.3322 8.73121C10.4538 8.72015 10.4648 8.67594 10.4869 8.64278C10.3764 8.64278 10.288 8.63173 10.1443 8.52121C9.92323 8.33331 9.89008 8.22278 9.87902 8.17857C9.48113 7.96857 9.02797 8.32226 8.64113 8.057C8.60797 8.03489 8.55271 7.99068 8.5085 7.96857C8.3206 7.85805 8.1106 7.97963 7.92271 7.89121C7.6906 7.78068 7.71271 7.43805 7.44744 7.34963C7.43639 7.34963 7.41429 7.34963 7.39218 7.34963C7.39218 7.34963 7.33692 7.41594 7.23744 7.48226C7.32586 7.50436 7.34797 7.52647 7.38113 7.71436L7.6685 8.32226C7.82323 8.4991 8.38692 8.47699 8.42007 8.01278C8.5306 8.12331 8.44218 8.2891 8.5306 8.41068C8.61902 8.53226 8.80692 8.4991 8.88429 8.63173C8.90639 8.67594 8.91744 8.74226 8.90639 8.78647C8.87323 8.94121 8.66323 9.36121 8.06639 9.82542C8.05534 9.83647 6.89481 10.7538 6.62955 10.4996L5.66797 7.97963C5.65692 7.94647 5.64586 7.91331 5.63481 7.88015C5.5685 7.69226 5.5906 7.58173 5.60165 7.46015C5.48007 7.61489 5.48007 7.67015 5.49113 7.78068C5.36955 7.62594 5.33639 7.52647 5.32534 7.37173C5.20376 7.58173 5.19271 7.73647 5.43586 8.15647C5.61271 8.477 5.61271 8.477 5.88902 9.43857C5.99955 9.84752 6.12113 10.0686 6.32007 10.2233C6.4085 10.3007 6.58534 10.4333 6.62955 10.5217C6.67376 10.6433 6.62955 10.6765 6.53007 10.7538C7.01639 10.9417 7.01639 10.9417 7.13797 10.8975C7.77902 10.7096 7.77902 10.7096 7.77902 10.7428C7.77902 10.7759 7.88955 11.4391 6.87271 12.7102C5.86692 13.9702 6.60744 14.6775 6.6185 14.6775C6.6185 14.6886 6.6185 14.7107 6.60744 14.7328C6.62955 14.9759 6.78429 15.1859 6.79534 15.4291C6.81744 15.7386 6.46376 15.7938 6.37534 16.037C6.26481 16.3465 6.65165 16.5344 6.57429 16.8328C6.55218 16.9433 6.45271 17.0096 6.4085 17.0538C6.55218 17.1975 6.69586 17.3302 6.50797 17.8165C6.33113 18.2917 5.91113 18.1702 5.91113 18.1702C5.83376 18.137 4.86113 17.1091 4.82797 17.0649C4.52955 16.7444 3.8885 15.7828 3.8885 15.7828C3.72271 15.4512 3.76692 15.0644 3.61218 14.7328L3.60113 14.6996C3.60113 14.6886 3.22534 14.0586 3.30271 13.9038C3.05955 13.7823 2.56218 13.1854 2.75007 12.8428C2.54007 12.6107 2.76113 12.2459 2.48481 12.0359C2.47376 12.047 2.46271 12.058 2.45165 12.0691C2.4406 12.0691 2.4185 12.058 2.40744 12.058C2.38534 12.0802 2.35218 12.1023 2.33007 12.1023C1.95429 11.7265 1.95429 11.7265 1.84376 11.8038C1.33534 12.1796 1.26902 12.0359 1.16955 11.7928C1.16955 11.7928 0.926391 11.0965 0.860075 10.1238C0.83797 9.72594 0.992706 9.35015 0.981654 8.96331C0.981654 8.97436 0.981654 8.99647 0.970601 9.00752C1.02586 8.17857 1.92113 6.71963 1.93218 6.69752C2.06481 6.49857 2.13113 6.42121 2.17534 6.41015C2.2306 6.38805 2.26376 6.43226 2.31902 6.44331C2.36323 6.45436 2.37429 6.44331 2.55113 6.33279C2.70586 6.22226 2.76113 6.20015 2.8606 6.17805C2.90481 6.167 2.90481 6.167 3.29165 6.13384C3.38007 6.13384 3.43534 6.13384 3.35797 6.31068C3.30271 6.44331 3.20323 6.55384 3.18113 6.69752C3.22534 6.97384 3.86639 7.48226 3.98797 7.09542C4.04323 6.91857 4.10955 6.87436 4.15376 6.87436C4.17586 6.87436 4.19797 6.87436 4.22007 6.87436C4.41902 6.90752 4.52955 7.09542 4.71744 7.13963C4.90534 7.18384 5.06007 7.04015 5.24797 7.07331C5.25902 7.10647 5.28113 7.13963 5.30323 7.16173C5.5685 7.12857 5.69007 6.88542 5.78955 6.69752C5.96639 6.31068 5.91113 6.23331 5.88902 6.21121C5.88902 6.21121 5.44692 6.22226 5.34744 6.23331C5.15955 6.24436 5.04902 6.21121 5.01586 6.20015C5.02692 6.1891 5.02692 6.17805 5.03797 6.167C5.01586 6.15594 4.97165 6.15594 4.9385 6.15594C4.94955 6.07857 4.9385 6.00121 4.98271 5.93489C4.86113 5.81331 5.03797 5.69173 5.01586 5.57015C4.9385 5.51489 4.86113 5.49278 4.76165 5.5591C4.76165 5.59226 4.76165 5.62542 4.78376 5.65857C4.76165 5.65857 4.71744 5.65857 4.69534 5.66963C4.69534 5.68068 4.69534 5.70279 4.68429 5.71384C4.67323 5.68068 4.65113 5.64752 4.62902 5.61436C4.59586 5.747 4.69534 5.86857 4.68429 6.00121C4.67323 5.99015 4.66218 5.9791 4.66218 5.96805C4.66218 5.99015 4.65113 6.02331 4.62902 6.04542C4.60692 6.03436 4.57376 6.02331 4.55165 6.02331C4.56271 6.03436 4.57376 6.04542 4.58481 6.06752C4.56271 6.08963 4.5406 6.11173 4.5185 6.12278C4.5185 6.15594 4.50744 6.20015 4.50744 6.23331C4.49639 6.24436 4.48534 6.25542 4.46323 6.25542C4.28639 6.13384 4.39692 6.00121 4.43007 5.957C4.39692 5.957 4.34165 5.94594 4.3306 5.86857C4.3085 5.7691 4.34165 5.61436 4.34165 5.61436C4.37481 5.44857 4.26429 5.327 4.24218 5.17226C4.23113 5.12805 4.20902 5.08384 4.20902 5.05068C4.20902 5.01752 4.22007 4.96226 4.24218 4.94015C4.23113 4.9291 4.23113 4.907 4.22007 4.89594C4.20902 4.89594 4.18692 4.907 4.17586 4.907C4.16481 4.89594 4.14271 4.89594 4.13165 4.88489C3.99902 4.97331 3.95481 5.01752 3.97692 5.19436C3.98797 5.41542 4.17586 5.52594 4.20902 5.71384C4.14271 5.73594 4.08744 5.69173 4.03218 5.70278C4.03218 5.70278 4.01008 5.94594 3.89955 6.06752C3.81113 6.05647 3.74481 6.14489 3.65639 6.14489C3.57902 6.01226 3.82218 6.02331 3.8885 5.93489C4.07639 5.66963 3.80008 5.18331 3.78902 5.18331C3.68955 5.02857 3.53481 5.18331 3.40218 5.18331C3.40218 5.18331 3.40218 5.18331 3.36902 5.18331C3.36902 5.18331 2.94902 5.51489 2.73902 5.89068C2.59534 6.14489 2.4406 6.28857 2.27481 6.33279C2.21955 6.28857 2.21955 6.21121 2.18639 6.15594C2.17534 6.15594 2.15323 6.167 2.14218 6.167C2.2306 5.96805 2.2306 5.96805 2.27481 5.89068L2.26376 5.90173C2.59534 5.19436 2.59534 5.19436 2.88271 5.20542C3.02639 5.21647 3.40218 4.75226 3.2585 4.5091C3.34692 4.45384 3.34692 4.45384 3.47955 4.42068C3.56797 4.21068 4.46323 3.70226 4.47429 3.70226C4.48534 3.71331 4.49639 3.72436 4.50744 3.73542C4.60692 3.62489 4.66218 3.49226 4.76165 3.38173C4.77271 3.37068 4.80586 3.34857 4.81692 3.32647C4.89429 3.26015 4.92744 3.26015 4.97165 3.2491C4.89429 3.32647 4.83902 3.437 4.7506 3.49226C4.76165 3.49226 4.78376 3.49226 4.79481 3.49226C4.7506 3.56963 4.7506 3.56963 4.68429 3.56963C4.69534 3.55857 4.69534 3.53647 4.70639 3.52542C4.66218 3.60278 4.66218 3.61384 4.68429 3.65805C4.68429 3.65805 4.76165 3.647 4.87218 3.63594C4.86113 3.647 4.85007 3.65805 4.83902 3.65805C4.85007 3.6691 4.85007 3.69121 4.86113 3.70226C4.86113 3.70226 5.27007 3.6691 5.3585 3.60278C5.49113 3.41489 5.60165 3.28226 5.69007 3.227C5.71218 3.23805 5.73429 3.27121 5.75639 3.29331C5.90007 3.27121 5.86692 3.11647 5.94429 3.05015C5.99955 3.00594 5.99955 3.00594 6.4085 2.98384C6.4085 2.97278 6.39744 2.95068 6.39744 2.92857C6.38639 2.91752 6.36429 2.90647 6.35323 2.90647C6.35323 2.89542 6.35323 2.88436 6.34218 2.87331C5.97744 2.93963 5.97744 2.93963 5.91113 2.91752C6.02165 2.75173 6.02165 2.75173 6.44165 2.43121C6.27586 2.30963 6.2206 2.45331 6.20955 2.49752C5.63481 2.71857 5.66797 2.89542 5.67902 2.97278C5.07113 3.50331 5.07113 3.50331 4.91639 3.51436C4.91639 3.50331 4.92744 3.48121 4.9385 3.4591C4.81692 3.58068 4.81692 3.58068 4.78376 3.61384C4.77271 3.61384 4.7506 3.60278 4.73955 3.59173C4.81692 3.55857 4.81692 3.55857 4.82797 3.47015C4.99376 3.50331 5.10429 3.16068 5.1485 3.017C5.02692 3.11647 4.97165 3.14963 4.87218 3.18278C4.86113 3.17173 4.85007 3.16068 4.83902 3.16068C4.85007 3.11647 4.88323 3.07226 4.88323 3.02805C4.98271 2.92857 5.04902 2.78489 5.18165 2.72963C5.27007 2.68542 5.28113 2.68542 5.3585 2.64121C5.57955 2.53068 5.78955 2.37594 5.99955 2.25436C6.09902 2.18805 6.12113 2.177 6.14323 2.15489C6.15429 2.14384 6.15429 2.14384 6.16534 2.13278C6.13218 2.14384 6.09902 2.14384 6.06586 2.15489C6.14323 2.11068 6.23165 2.07752 6.32007 2.03331C6.30902 2.04436 6.29797 2.05542 6.28692 2.06647C6.39744 2.05542 6.47481 1.97805 6.56323 1.95594C6.56323 1.967 6.56323 1.9891 6.56323 2.00015C6.67376 1.967 6.67376 1.967 6.68481 1.95594C6.69586 1.95594 6.71797 1.967 6.72902 1.967C6.77323 1.91173 6.77323 1.90068 6.87271 1.86752C6.88376 1.87857 6.90586 1.87857 6.91692 1.88963C6.89481 1.90068 6.86165 1.93384 6.8285 1.94489C6.91692 1.90068 7.00534 1.88963 7.04955 1.87857C7.0385 1.88963 7.02744 1.90068 7.01639 1.90068C7.02744 1.90068 7.04955 1.88963 7.07165 1.88963C7.08271 1.90068 7.10481 1.91173 7.11586 1.91173C7.08271 1.92278 7.04955 1.93384 7.01639 1.94489C7.16007 1.95594 7.16007 1.95594 7.17113 1.95594C7.17113 1.967 7.18218 1.9891 7.18218 2.00015C7.42534 2.05542 7.51376 2.06647 7.53586 2.13278C7.56902 2.21015 7.42534 2.30963 7.35902 2.32068C7.22639 2.34278 7.13797 2.24331 7.01639 2.23226C7.09376 2.54173 7.09376 2.54173 7.17113 2.51963C7.16007 2.49752 7.14902 2.45331 7.13797 2.43121C7.31481 2.43121 7.44744 2.27647 7.62429 2.28752C7.63534 2.29857 7.64639 2.30963 7.65744 2.32068C7.72376 2.177 7.72376 2.177 7.73481 2.12173C7.72376 2.11068 7.72376 2.09963 7.71271 2.08857C7.82323 2.03331 7.88955 2.05542 7.88955 2.15489C7.79007 2.15489 7.76797 2.16594 7.75692 2.24331C8.00007 2.26542 8.16586 2.04436 8.39797 2.05542C8.37586 2.07752 8.34271 2.09963 8.3206 2.11068C8.67429 2.08857 8.72955 2.06647 8.79586 2.03331C8.79586 2.02226 8.79587 2.02226 8.66323 1.93384C9.24902 2.11068 9.24902 2.11068 9.27113 2.09963C9.19376 2.02226 9.17165 1.95594 9.18271 1.88963C9.20481 1.79015 9.33744 1.7791 9.35955 1.67963C9.39271 1.67963 9.42587 1.69068 9.44797 1.70173C9.44797 1.70173 9.44797 1.70173 9.45902 1.70173C9.47007 1.70173 9.49218 1.71278 9.50323 1.71278C9.5585 1.84542 9.53639 2.00015 9.60271 2.12173C9.56955 2.22121 9.5585 2.23226 9.43692 2.27647C9.73534 2.25436 9.70218 2.14384 9.69113 2.07752C9.82376 2.01121 9.89008 2.14384 9.98955 2.16594C9.84587 2.04436 9.65797 1.9891 9.5585 1.82331C9.62481 1.7791 9.62481 1.7791 9.64692 1.71278C9.65797 1.72384 9.66902 1.73489 9.68007 1.73489C9.68007 1.76805 9.69113 1.81226 9.69113 1.84542C9.72429 1.85647 9.72429 1.85647 9.87902 1.86752C9.86797 1.84542 9.86797 1.84542 9.74639 1.79015C9.75744 1.79015 9.77955 1.80121 9.7906 1.80121C9.80165 1.79015 9.81271 1.7791 9.82376 1.7791C9.81271 1.76805 9.80165 1.76805 9.7906 1.757C9.7906 1.757 9.98955 1.80121 10.1222 1.81226C10.0669 1.73489 10.0338 1.71278 9.92323 1.69068C9.92323 1.69068 9.92323 1.69068 9.94534 1.67963C10.0559 1.64647 10.1774 1.67963 10.288 1.63542C10.2769 1.63542 10.2548 1.62436 10.2438 1.61331C10.2217 1.49173 10.2769 1.49173 10.5422 1.50278C10.5643 1.48068 10.5974 1.46963 10.6195 1.45857C10.6195 1.45857 10.6969 1.48068 10.8738 1.46963C10.8627 1.45857 10.8517 1.44752 10.8406 1.43647C10.8517 1.43647 10.8738 1.43647 10.8848 1.43647C10.929 1.38121 10.929 1.38121 10.9953 1.3591C11.5148 1.34805 11.9238 1.73489 12.4432 1.72384C12.4543 1.71278 12.4653 1.70173 12.4653 1.69068C12.4653 1.67963 12.4543 1.65752 12.4543 1.64647C12.7085 1.71278 12.9295 1.90068 13.2169 1.84542C13.2169 1.83436 13.2059 1.81226 13.2059 1.80121C13.3385 1.757 13.449 1.82331 13.5817 1.83436C13.5817 1.83436 13.5817 1.83436 13.5485 1.82331C13.5374 1.81226 13.5264 1.80121 13.5153 1.80121C13.5595 1.80121 13.5595 1.80121 13.648 1.81226C13.6148 1.80121 13.5817 1.7791 13.5485 1.76805C13.5485 1.757 13.5374 1.73489 13.5374 1.72384C14.0127 1.67963 14.0459 1.71278 14.1674 1.81226C14.3774 1.9891 14.6317 1.86752 14.8638 1.90068C15.0738 1.92278 15.2727 1.93384 15.4827 1.95594C15.5048 1.95594 15.538 1.97805 15.5601 1.9891C15.549 1.9891 15.5269 1.97805 15.5159 1.97805C15.6817 2.04436 15.7148 2.04436 15.7922 2.05542C15.6043 1.97805 15.6043 1.97805 15.5822 1.93384C15.9801 1.91173 16.9638 2.177 17.1295 2.35384C17.1185 2.35384 17.0964 2.35384 17.0853 2.35384C17.1074 2.36489 17.2069 2.4091 17.2953 2.47542C17.0632 2.597 16.9306 2.35384 16.7427 2.32068C16.8422 2.387 16.8422 2.387 16.8753 2.4091C16.8643 2.42015 16.8643 2.43121 16.8532 2.44226C17.019 2.53068 17.1959 2.58594 17.3395 2.69647C17.2843 2.67436 17.2732 2.67436 17.1959 2.66331C17.2069 2.68542 17.218 2.70752 17.229 2.71857C17.218 2.72963 17.2069 2.74068 17.1959 2.75173C17.2511 2.79594 17.2622 2.807 17.3174 2.90647C17.3064 2.91752 17.3064 2.92857 17.2953 2.93963C17.0964 2.89542 17.0411 2.90647 16.9969 2.91752C17.019 3.02805 17.2953 3.18278 17.2953 3.18278C17.2953 3.18278 17.6159 3.37068 17.7817 3.56963C17.7817 3.58068 17.7817 3.60278 17.7817 3.62489C17.8259 3.6691 17.8259 3.6691 17.9364 3.79068C17.9364 3.79068 17.9364 3.79068 17.9143 3.80173C17.9364 3.90121 18.0138 3.96752 18.058 4.05594C18.069 4.067 18.0801 4.11121 18.0801 4.15542C18.069 4.14436 18.058 4.13331 18.0469 4.12226C18.0359 4.11121 18.0469 4.0891 18.058 4.067C17.7374 3.71331 17.3064 3.50331 16.9527 3.19384C16.9638 3.18278 16.9748 3.16068 16.9859 3.14963C16.8532 2.78489 16.599 2.66331 16.5217 2.66331C16.599 2.71857 16.6211 2.72963 16.6874 2.77384C16.6764 2.77384 16.6543 2.77384 16.6432 2.77384C16.6543 2.807 16.6653 2.85121 16.6764 2.87331C16.4553 2.72963 16.4332 2.71857 16.3338 2.69647C16.3227 2.70752 16.3117 2.71857 16.3117 2.72963C16.3227 2.807 16.3227 2.807 16.599 3.0391C16.4995 3.17173 16.389 3.07226 16.3669 3.05015C16.378 3.0391 16.389 3.02805 16.4001 3.02805C16.4001 3.02805 16.4001 3.02805 16.389 3.02805C16.3669 3.02805 16.3338 3.017 16.3117 3.017C16.3117 3.017 16.3117 3.017 16.2785 3.017C16.2453 3.017 16.2122 3.017 16.179 3.00594C16.0464 3.0391 15.9027 2.89542 15.7811 3.02805C15.6817 3.13857 15.6706 3.65805 16.1459 3.6691C16.0132 3.54752 16.0132 3.54752 15.9911 3.50331C15.9911 3.50331 16.168 3.61384 16.2011 3.71331C16.2232 3.70226 16.2453 3.69121 16.2674 3.68015C16.2453 3.65805 16.2232 3.63594 16.2122 3.60278C16.3227 3.60278 16.4664 3.63594 16.599 3.76857C16.588 3.76857 16.5659 3.76857 16.5548 3.75752C17.2732 4.17752 17.4501 4.98436 17.3395 5.22752C17.3285 5.22752 17.3064 5.23857 17.2953 5.24963C17.2401 5.22752 17.2401 5.22752 17.1848 5.16121C17.1738 5.17226 17.1627 5.18331 17.1627 5.19436C17.1517 5.18331 17.1517 5.17226 17.1406 5.16121C17.1517 5.19436 17.1627 5.23857 17.1627 5.26068C17.1517 5.26068 17.1295 5.26068 17.1185 5.24963C17.3064 5.40436 17.1295 5.64752 17.2511 5.81331C17.3617 5.96805 17.5606 6.00121 17.649 6.167C17.6822 6.23331 17.6822 6.23331 17.7374 6.47647C17.7153 6.47647 17.6822 6.48752 17.6601 6.49857C17.6601 6.50963 17.6601 6.53173 17.6601 6.54279C17.428 6.63121 17.3285 6.1891 17.3395 6.14489C17.3506 6.15594 17.3617 6.167 17.3727 6.167C17.3617 6.10068 17.3506 6.07857 17.2511 6.02331H17.2401C17.1627 6.00121 17.0743 5.99015 16.9969 5.957C16.9859 5.93489 16.9969 5.89068 17.008 5.86857C16.9085 5.82436 16.8753 5.69173 16.7427 5.69173C16.6211 5.69173 16.6874 5.86857 16.5659 5.86857C16.5548 5.86857 16.5327 5.85752 16.5217 5.85752C16.5106 5.75805 16.4995 5.75805 16.4443 5.73594C16.4553 5.72489 16.4664 5.70278 16.4664 5.69173C16.4664 5.65857 16.4111 5.50384 16.3006 5.54805C16.3006 5.54805 15.9911 5.75805 16.1348 5.92384C16.3117 6.12278 16.588 5.99015 16.7869 6.08963C16.7648 6.20015 16.6432 6.26647 16.6653 6.38805C16.6764 6.43226 16.6764 6.47647 16.8643 6.67542C17.0301 6.85226 17.1517 6.96278 17.2732 7.06226C17.2622 7.07331 17.2511 7.07331 17.2401 7.08436C17.1738 7.05121 17.1406 6.98489 17.0632 6.97384C17.0743 6.97384 17.229 7.05121 17.2511 7.25015C17.2401 7.26121 17.229 7.27226 17.229 7.28331C17.4059 7.31647 17.4059 7.31647 17.439 7.4491C17.439 7.46015 17.428 7.47121 17.4169 7.48226C17.4611 7.58173 17.4611 7.59278 17.4501 7.6591C17.439 7.6591 17.4169 7.6591 17.4059 7.67015C17.3838 7.72542 17.3617 8.01278 17.4169 8.12331C17.4169 8.12331 17.4169 8.12331 17.428 8.11226C17.4059 8.267 17.3948 8.2891 17.2843 8.41068C17.1517 8.54331 16.9748 8.58752 16.8311 8.69805C16.8201 8.65384 16.809 8.63173 16.7538 8.59857C16.798 8.687 16.809 8.7091 16.6985 8.84173C16.6985 8.84173 16.4443 8.64278 16.4001 9.08489C16.4885 9.16226 16.5327 9.22857 16.4885 9.39436C16.4443 9.52699 16.3227 9.5491 16.2564 9.56015C16.2674 9.53805 16.2895 9.49384 16.3006 9.47173C16.3117 9.1291 16.3117 9.1291 16.3669 9.08489C16.3669 9.02963 16.3669 8.9191 16.2895 8.88594C16.2453 8.86384 15.7922 8.90805 15.8253 9.16226C15.8806 9.63752 16.4001 9.86963 16.4664 10.3449C16.4885 10.5107 16.4222 11.0965 16.168 10.9086C16.1569 11.0302 16.0464 11.3617 15.8695 11.2733C15.8917 11.2512 15.9138 11.207 15.9248 11.1849C15.8364 10.8091 15.4164 10.6875 15.2727 10.3559C14.9743 10.5549 15.0738 11.0302 15.0848 11.0854C15.129 11.3065 15.328 11.417 15.4495 11.5938C15.6485 11.8923 15.5822 12.257 15.7259 12.5775C15.7369 12.5886 15.759 12.5996 15.7701 12.6107C15.4717 12.6659 15.3722 12.4228 15.2506 11.9033C15.1511 11.4612 15.1069 11.3175 14.9411 11.4502C14.8969 11.3065 14.8859 11.2402 14.919 10.9749C15.0074 10.2786 14.698 9.7591 14.5985 9.62647C14.6317 9.82542 14.5985 9.84752 14.5432 9.86963ZM7.31481 5.117C7.34797 5.12805 7.34797 5.12805 7.38113 5.117C7.28165 5.27173 7.30376 5.33805 7.49165 5.49278C7.61323 5.59226 7.63534 5.62542 7.64639 5.68068C7.51376 5.65857 7.44744 5.90173 7.4585 5.9791C7.46955 6.11173 7.59113 6.167 7.67955 6.22226C7.70165 6.23331 7.71271 6.24436 7.71271 6.25542C7.84534 6.33278 7.95586 6.20015 8.07744 6.22226C8.06639 5.75805 8.06639 5.48173 7.86744 5.28278C7.72376 5.15015 7.72376 5.117 7.71271 5.06173C7.73481 5.03963 7.76797 5.02857 7.79007 5.01752C7.75692 4.94015 7.75692 4.94015 7.97797 4.89594C7.94481 4.87384 7.93376 4.86278 7.95586 4.78542C7.96692 4.73015 7.98902 4.65278 7.82323 4.64173C7.63534 4.63068 7.58007 4.84068 7.41429 4.87384C7.39218 4.87384 7.38113 4.86278 7.35902 4.85173C7.37007 4.94015 7.29271 5.01752 7.31481 5.117ZM6.08797 4.77436C6.04376 4.84068 6.13218 4.85173 6.34218 4.89594C6.36428 4.85173 6.38639 4.76331 6.45271 4.78542C6.45271 4.76331 6.45271 4.75226 6.41955 4.74121C6.39744 4.73015 6.38639 4.7191 6.39744 4.697C6.44165 4.70805 6.49692 4.68594 6.55218 4.65278C6.56323 4.65278 6.56323 4.64173 6.57429 4.64173C6.47481 4.58647 6.27586 4.65278 6.14323 4.75226C6.15429 4.74121 6.15428 4.74121 6.15428 4.74121C6.13218 4.73015 6.11007 4.75226 6.08797 4.77436C6.09902 4.76331 6.09902 4.76331 6.11007 4.75226L6.08797 4.77436ZM6.33113 5.58121C6.50797 5.59226 6.59639 5.48173 6.62955 5.44857C6.71797 5.31594 6.54113 5.10594 6.32007 4.96226C6.16534 4.86278 5.99955 5.03963 5.84481 4.96226C5.83376 4.9291 5.83376 4.9291 5.97744 4.80752C5.85586 4.74121 5.7785 4.70805 5.66797 4.76331L5.64586 4.74121L5.65692 4.75226C5.55744 4.80752 5.49113 4.9291 5.41376 5.06173C5.32534 5.21647 5.29218 5.24963 5.20376 5.31594C5.23692 5.33805 5.24797 5.3491 5.27007 5.40436C5.29218 5.44857 5.32534 5.51489 5.3585 5.52594C5.55744 5.57015 5.69007 5.36015 5.88902 5.40436C6.05481 5.43752 6.16534 5.5591 6.33113 5.58121ZM12.4211 11.3175C12.4101 11.3175 12.4101 11.3286 12.399 11.3396C12.4101 11.3728 12.4211 11.3728 12.4211 11.3728V11.3617C12.4211 11.3507 12.4322 11.3507 12.4322 11.3396C12.4322 11.3286 12.4322 11.3175 12.4211 11.3175ZM20.5669 13.6828C20.6111 13.517 20.6001 13.3512 20.5559 13.3623C20.5448 13.3623 20.5338 13.3733 20.5227 13.3954C20.5227 13.4065 20.5227 13.4175 20.5227 13.4396C20.5227 13.4396 20.5227 13.4396 20.5117 13.4396C20.5006 13.4507 20.5006 13.4507 20.5006 13.4617C20.5006 13.4617 20.5006 13.4617 20.5117 13.4507C20.5227 13.5059 20.5006 13.6607 20.5006 13.6607C20.5006 13.6717 20.4785 13.6828 20.4785 13.6828C20.4453 13.727 20.4343 13.7823 20.4011 13.8154C20.379 13.8375 20.368 13.8375 20.3569 13.8265C20.3238 13.8044 20.3127 13.7933 20.2574 13.8375C20.2464 13.8486 20.2464 13.8486 20.2243 13.948C20.2353 13.948 20.379 14.0254 20.4895 13.6828C20.4895 13.738 20.4895 13.7491 20.4895 13.7602C20.5117 13.738 20.5117 13.727 20.5227 13.7049L20.5338 13.6828H20.5669C20.5669 13.6938 20.5669 13.6828 20.5669 13.6828ZM12.399 11.3617C12.4101 11.5607 12.399 11.7044 12.3769 11.7928C12.3217 12.0028 12.189 11.8149 12.189 11.8038C12.1338 11.7044 12.1559 11.5938 12.189 11.4502C12.2222 11.3065 12.2332 11.218 12.189 11.1407C12.178 11.1407 12.1669 11.1296 12.1559 11.1075L12.1669 11.1186C12.1669 11.1186 12.1669 11.1186 12.1559 11.1075C12.1669 11.0965 12.1669 11.0965 12.189 11.0965C12.2001 11.0965 12.2774 11.0965 12.3659 11.207C12.388 11.2402 12.4211 11.2954 12.388 11.3286C12.388 11.3396 12.388 11.3507 12.399 11.3617ZM12.2443 11.1628C12.2222 11.1407 12.2111 11.1517 12.2111 11.1517C12.2111 11.1517 12.2111 11.1628 12.2222 11.1628C12.2222 11.1628 12.2332 11.1628 12.2443 11.1628ZM19.749 13.2075C19.5611 13.2075 19.539 13.4617 19.3622 13.4838C19.2959 13.4949 19.329 13.2738 19.329 13.2738V13.2849C19.3511 13.0749 19.3622 12.9865 19.2295 12.9975C19.1743 13.0086 19.119 13.0417 19.0527 13.1191C19.0638 13.0528 19.0417 13.0417 19.0306 13.0307C19.0195 13.0307 19.0085 13.0417 18.9974 13.0638C19.0748 13.2075 19.1522 13.3291 19.2848 13.2849C19.2406 13.3512 19.1522 13.3402 19.0969 13.3844C19.1853 13.4617 19.0748 13.5502 19.119 13.6275C19.1411 13.6275 19.1522 13.6275 19.2185 13.5059C19.2074 13.5612 19.2074 13.5944 19.2406 13.6386C19.2738 13.6828 19.3401 13.6938 19.3732 13.727C19.4395 13.7823 19.4395 13.7933 19.4506 14.2023C19.4395 14.1802 19.4174 14.1138 19.2848 14.368C19.3511 14.3349 19.4285 14.3349 19.4948 14.3128C19.4285 14.5117 19.5722 14.5007 19.5832 14.4896C19.5943 14.4786 19.7159 14.3902 19.7048 14.3349H19.6938C19.7601 14.3017 19.7601 14.3017 19.7711 14.2907V14.2796V14.2907C19.7822 14.2686 19.7932 14.2575 19.8153 14.2133C19.8264 14.2796 19.8927 14.3017 19.9148 14.368C19.9369 14.4675 19.8817 14.567 19.9259 14.6665C19.9811 14.788 20.0364 14.7328 20.0364 14.7217C20.0585 14.6996 20.0585 14.6554 20.0695 14.6223C20.0917 14.5007 20.0364 14.3902 20.0474 14.2796C20.0585 14.158 20.1469 14.0586 20.158 13.937C20.158 13.9038 20.158 13.8596 20.158 13.8265C20.1469 13.8265 19.9811 13.1965 19.749 13.2075ZM15.6706 13.9149C15.6595 13.8817 15.6595 13.8817 15.6595 13.8707C15.6927 13.8486 15.7369 13.8707 15.7811 13.8486C15.8143 13.8265 15.8695 13.7823 15.8806 13.738C15.9359 13.5723 15.8806 13.4065 15.8585 13.318C15.969 13.4949 15.9911 13.5391 16.0906 13.4838C16.0574 13.4507 16.0795 13.4065 16.0906 13.4065C16.1017 13.4065 16.1127 13.4175 16.1127 13.4175L16.0906 13.3954H16.1017C16.1017 13.3954 16.0906 13.3954 16.0906 13.3844C15.8917 13.1965 15.8917 13.1965 15.8143 13.2407C15.748 13.1302 15.6706 13.0307 15.6264 12.898C15.6043 12.8317 15.6153 12.7433 15.5822 12.677C15.5601 12.6328 15.5269 12.6217 15.4827 12.5996C15.4717 12.6217 15.4717 12.6328 15.4717 12.6549C15.4495 12.6217 15.4274 12.6107 15.3943 12.5886C15.4164 12.5996 15.4164 12.5996 15.4274 12.5886C15.4495 12.5112 15.339 12.4338 15.339 12.4338C15.2506 12.3675 15.1511 12.3344 15.0738 12.257C14.9632 12.1686 14.8969 12.047 14.7864 11.9696C14.7422 11.9475 14.6648 11.8812 14.5653 11.8923C14.5543 11.8923 14.5432 11.8923 14.5322 11.8923C14.698 11.9254 14.9411 12.4449 15.2727 13.2075C15.4938 13.738 15.5932 13.9702 15.6706 13.9149ZM19.0859 13.3954C19.0859 13.3844 19.0859 13.3844 19.0859 13.3954V13.3954ZM19.5059 14.7549C19.2627 15.0754 19.1632 15.4844 18.8759 15.7717C18.7101 15.9375 18.6659 15.6059 18.6659 15.5949C18.6548 15.4954 18.6548 15.4954 18.9643 14.9317C18.9422 14.9538 18.9422 14.9538 18.8869 15.0091C18.8869 14.9759 18.909 14.9428 18.909 14.9096C18.8759 14.987 18.8759 14.987 18.5995 14.8212C18.489 15.0202 18.489 15.0202 18.4338 15.0423C18.3232 15.0754 18.1574 15.208 18.0911 15.4733C18.0359 15.4402 18.0359 15.4402 17.9585 15.4733C17.9695 15.3738 17.859 15.3517 17.8369 15.2744C17.8259 15.2965 17.5385 15.5838 17.3948 15.6391C17.3838 15.7054 17.3838 15.7165 17.3506 15.7828C17.3506 15.7717 17.3506 15.7717 17.3395 15.7607C17.3174 15.7828 17.3174 15.7828 17.2953 15.838C17.2953 15.8049 17.2953 15.7717 17.3174 15.6723C17.2511 15.7165 17.1959 15.7496 17.0522 15.9154C16.9085 16.0812 16.8643 16.1144 16.7869 16.1586C16.6653 16.2249 16.5217 16.2359 16.389 16.3023C16.2232 16.3796 16.1127 16.5344 15.9138 16.5565C15.9138 16.5344 15.9138 16.5123 15.9248 16.4902C15.6485 16.6338 15.5601 16.9544 15.5269 17.087C15.5048 17.1533 15.5048 17.1533 15.4827 17.1754C15.4827 17.1644 15.4827 17.1423 15.4827 17.1312C15.3059 17.3412 15.3722 17.6286 15.2174 17.8496C15.118 17.9823 14.9632 18.0596 14.8859 18.2033C14.8859 18.2144 14.8859 18.2254 14.8859 18.2365C14.9632 18.3028 15.1953 18.2144 15.3611 18.148C15.3722 18.148 16.4774 17.7391 16.6764 17.8938C16.6764 17.927 16.6764 17.927 16.4774 18.2696C16.6211 18.1702 16.7869 18.0817 16.9306 17.9712C16.8422 18.148 16.6432 18.1923 16.4995 18.3028C16.5548 18.2917 16.5769 18.2807 16.7317 18.1702C16.7206 18.1812 16.7206 18.1812 16.5438 18.3359C16.5548 18.3359 16.5548 18.347 16.5659 18.347C16.5217 18.4796 16.3448 18.5238 16.3227 18.6896C16.3448 18.7117 16.3448 18.7117 16.6211 18.6233C16.588 18.6565 16.588 18.6565 16.5548 18.6675C16.5659 18.6675 16.5769 18.6675 16.5769 18.6675C16.5659 18.7007 16.5659 18.7007 16.5217 18.7449C17.6932 18.1923 18.4006 17.4075 18.6438 17.098C18.6327 17.1091 18.6106 17.1312 18.5995 17.1533C18.6217 17.1202 18.6438 17.098 18.6769 17.0649C18.6769 17.0759 18.6659 17.0759 18.6659 17.087L18.6769 17.0759C18.688 17.0649 18.688 17.0538 18.699 17.0538C18.699 17.0538 18.688 17.0649 18.688 17.0759C18.7211 17.0317 18.8095 16.9102 18.8759 16.7444C18.9311 16.6007 18.9974 16.468 19.0417 16.3354C19.0859 16.2138 19.0527 16.0702 19.108 15.9596C19.3511 15.4844 19.3511 15.4844 19.3511 15.3186C19.3843 14.9538 19.4395 14.8654 19.5059 14.7549C19.5169 14.7549 19.5169 14.7549 19.5059 14.7549C19.5169 14.7549 19.5169 14.7549 19.5059 14.7549ZM18.4559 13.5723C18.489 13.5944 18.5443 13.5723 18.5553 13.528C18.5553 13.517 18.5553 13.517 18.5553 13.5059C18.5553 13.4728 18.5111 13.4396 18.4559 13.4396C18.4227 13.4507 18.4117 13.4728 18.4117 13.4838C18.4227 13.5059 18.4227 13.5502 18.4559 13.5723ZM18.2238 11.627C18.2127 11.638 18.2127 11.638 18.2017 11.6491C18.2127 11.627 18.2238 11.627 18.2238 11.627ZM18.6659 11.638C18.6769 11.7486 18.6769 11.7486 18.699 11.7596C18.7101 11.7265 18.7211 11.6933 18.7211 11.6602C18.7211 11.6602 18.7764 11.2623 18.6327 11.0965C18.6438 11.0854 18.6438 11.0854 18.6438 10.9749C18.6327 10.997 18.6217 11.0191 18.6217 11.0412C18.6217 11.0523 18.6217 11.0633 18.6327 11.0744C18.5885 11.0412 18.5885 11.0412 18.5774 10.8312C18.6769 10.8754 18.6438 10.7207 18.6106 10.6544C18.5774 10.5659 18.5664 10.5659 18.478 10.577C18.4117 10.3559 18.4117 10.3559 18.3895 10.3559C18.3785 10.367 18.3785 10.367 18.3674 10.4002C18.3564 10.3007 18.2348 10.3007 18.2127 10.3228C18.2017 10.3338 18.2017 10.3559 18.2017 10.367C18.1906 10.3338 18.1906 10.3007 18.1906 10.2454C18.1906 10.2233 18.1906 10.2123 18.1906 10.2012C18.1906 10.1902 18.1906 10.1902 18.1906 10.1791C18.1795 10.0023 18.2348 9.81436 18.1685 9.63752C18.1132 9.50489 17.9364 9.59331 17.8701 9.46068V9.44963C17.8701 9.44963 17.8701 9.46068 17.8811 9.46068C17.9032 9.61542 17.8369 9.78121 17.9143 9.93594C17.9032 9.93594 17.8811 9.93594 17.8701 9.94699C17.848 10.0354 17.8922 10.2123 17.9806 10.2786C18.0138 10.2565 18.0138 10.2454 17.9917 10.2012C18.0359 10.2344 18.0359 10.2344 18.0138 10.378C18.0027 10.378 17.9917 10.378 17.9806 10.378C17.9585 10.4333 17.9917 10.4775 18.1132 10.6102C18.1795 10.5217 18.1022 10.4333 18.0469 10.378C18.069 10.367 18.1022 10.367 18.1685 10.378C18.1574 10.4112 18.1795 10.4333 18.1906 10.4333C18.2017 10.4223 18.2127 10.4223 18.2017 10.378C18.279 10.4002 18.3011 10.4775 18.3674 10.5217C18.3564 10.4665 18.3232 10.4444 18.3232 10.4333C18.3232 10.4112 18.3343 10.3449 18.4006 10.4112C18.4448 10.4554 18.478 10.5328 18.489 10.5549H18.478C18.4669 10.6212 18.4669 10.6212 18.5664 10.7538C18.5443 10.7759 18.5332 10.7759 18.5111 10.7538H18.5222C18.5222 10.7317 18.5222 10.7317 18.5111 10.7096C18.5001 10.7207 18.5001 10.7207 18.5001 10.7538L18.489 10.7428C18.4669 10.798 18.4669 10.8423 18.489 10.9086C18.489 10.9086 18.489 10.9086 18.478 10.9086C18.478 10.9086 18.478 10.9086 18.5111 10.9749L18.6106 11.1517C18.5885 11.218 18.5885 11.218 18.4338 11.3949C18.4338 11.3838 18.4338 11.3838 18.4448 11.3728C18.4227 11.3396 18.2901 11.3396 18.268 11.428C18.2569 11.4833 18.2569 11.5386 18.2348 11.5938C18.2901 11.5275 18.3011 11.4944 18.3011 11.4833C18.3453 11.5496 18.478 11.428 18.478 11.5165C18.478 11.5828 18.4338 11.638 18.4559 11.7044C18.478 11.7707 18.5443 11.7928 18.5774 11.837C18.5664 11.7817 18.6438 11.7154 18.6659 11.638ZM18.268 11.1959C18.2901 11.1959 18.3453 11.1186 18.3674 11.0744C18.3674 11.0744 18.3785 11.008 18.3785 10.9749C18.3895 10.8644 18.3343 10.8754 18.3343 10.8754C18.2901 10.9086 18.2238 11.1959 18.268 11.1959ZM18.3343 10.6875C18.3674 10.6212 18.3785 10.588 18.3785 10.5659C18.4117 10.5991 18.4559 10.6654 18.4448 10.7207C18.4448 10.7317 18.4448 10.7428 18.4338 10.7538C18.4006 10.6875 18.3674 10.6765 18.3232 10.7207V10.7096C18.3232 10.6765 18.3232 10.6765 18.3343 10.6875C18.3343 10.6765 18.3343 10.6765 18.3343 10.6875ZM18.8206 12.6991C18.8095 12.7102 18.8095 12.7212 18.7985 12.7323C18.8095 12.677 18.7985 12.6328 18.8095 12.5775C18.8206 12.5333 18.8206 12.5333 18.8317 12.5223C18.8317 12.5223 18.8206 12.5223 18.8206 12.5333C18.7874 12.5554 18.7543 12.6107 18.7322 12.7765C18.7322 12.7654 18.7322 12.7654 18.7322 12.7654C18.7211 12.7875 18.7322 12.9644 18.7432 12.9975C18.7543 13.0749 18.7764 13.0859 18.7874 13.0749C18.7432 12.8759 18.8759 12.8759 18.8759 12.8759C18.8538 12.7986 18.8648 12.7654 18.898 12.6328C18.8648 12.6217 18.8206 12.677 18.8206 12.6991ZM12.4101 11.3838C12.4101 11.3838 12.4101 11.3949 12.4101 11.3838C12.4101 11.3728 12.399 11.3507 12.388 11.3396C12.388 11.3396 12.388 11.3507 12.388 11.3617C12.399 11.3728 12.4101 11.3838 12.4101 11.3838ZM8.03323 15.4402L8.02218 15.418C8.02218 15.4291 8.02218 15.4291 8.03323 15.4402C8.01113 15.407 8.01113 15.407 8.00008 15.3959C8.00008 15.407 8.00007 15.407 7.98902 15.5838C7.96692 15.5507 7.96692 15.5507 7.95586 15.5175C7.91165 15.628 7.91165 15.6833 7.94481 15.9817C7.98902 16.3465 7.92271 17.0428 7.71271 17.0649C7.63534 17.0649 7.50271 16.9654 7.44744 16.7996C7.40323 16.6449 7.33692 15.8159 7.33692 15.8159C7.34797 15.7054 7.44744 15.6723 7.50271 15.5949C7.51376 15.5728 7.52481 15.5396 7.53586 15.5175C7.54692 15.5065 7.55797 15.4954 7.56902 15.4844C7.64639 15.3959 7.65744 15.2854 7.72376 15.1859C7.75692 15.1307 7.76797 15.0644 7.82323 15.0091C7.88955 14.987 7.93376 15.1417 7.96692 15.2633C8.00008 15.3628 8.01113 15.3959 8.03323 15.4402ZM8.01113 15.3959C8.01113 15.3849 8.01113 15.3849 8.00008 15.3738V15.3849C8.01113 15.3849 8.01113 15.3959 8.01113 15.3959ZM17.859 9.46068C17.848 9.44963 17.859 9.44963 17.859 9.46068V9.46068Z" fill="#2F6E24"/>
</g>
</g>
<defs>
<clipPath id="clip0_3553_15090">
<rect width="21" height="21" fill="white" transform="translate(0.672363)"/>
</clipPath>
</defs>
</svg>
