<?xml version="1.0" encoding="utf-8"?>
<!-- Generator: Adobe Illustrator 17.0.0, SVG Export Plug-In . SVG Version: 6.00 Build 0)  -->
<!DOCTYPE svg PUBLIC "-//W3C//DTD SVG 1.1//EN" "http://www.w3.org/Graphics/SVG/1.1/DTD/svg11.dtd">
<svg version="1.1" id="icon" xmlns="http://www.w3.org/2000/svg" xmlns:xlink="http://www.w3.org/1999/xlink" x="0px" y="0px"
	 width="128px" height="128px" viewBox="0 0 128 128" enable-background="new 0 0 128 128" xml:space="preserve">
<path fill="#B8CBCD" d="M108.835,113.854c0,5.625-18.343,10.187-44.668,10.187c-26.326,0-47.667-4.562-47.667-10.187
	c0-5.626,21.341-10.188,47.667-10.188C90.492,103.667,108.835,108.228,108.835,113.854z"/>
<rect x="32.5" y="27.667" fill="#FFBAB0" width="63" height="72"/>
<path fill="#783741" d="M95.5,102.667h-63c-1.657,0-3-1.343-3-3v-72c0-1.657,1.343-3,3-3h63c1.657,0,3,1.343,3,3v72
	C98.5,101.324,97.157,102.667,95.5,102.667z M35.5,96.667h57v-66h-57V96.667z"/>
<path fill="#783741" d="M63.704,30.585c-0.614,0-1.227-0.189-1.748-0.562l-13.311-9.541c-1.135-0.813-1.559-2.304-1.021-3.593
	l4.324-10.377c0.466-1.117,1.559-1.846,2.77-1.846H74.5c1.211,0,2.304,0.729,2.769,1.846l4.324,10.377
	c0.563,1.351,0.068,2.91-1.169,3.691l-15.12,9.541C64.815,30.431,64.259,30.585,63.704,30.585z M54.08,16.996l9.73,6.975
	l11.27-7.111l-2.58-6.192H56.718L54.08,16.996z"/>
<path fill="#783741" d="M85.718,10.667H43.5c-1.657,0-3-1.343-3-3s1.343-3,3-3h42.218c1.657,0,3,1.343,3,3
	S87.375,10.667,85.718,10.667z"/>
<line fill="#F7BB83" x1="43.882" y1="115.667" x2="84.118" y2="115.667"/>
<path fill="#783741" d="M84.118,118.667H43.882c-1.657,0-3-1.343-3-3c0-1.657,1.343-3,3-3h40.236c1.657,0,3,1.343,3,3
	C87.118,117.324,85.775,118.667,84.118,118.667z"/>
<line fill="#F7BB83" x1="47.5" y1="107.667" x2="80.5" y2="107.667"/>
<path fill="#783741" d="M80.5,110.667h-33c-1.657,0-3-1.343-3-3c0-1.657,1.343-3,3-3h33c1.657,0,3,1.343,3,3
	C83.5,109.324,82.157,110.667,80.5,110.667z"/>
<line fill="#F7BB83" x1="78.5" y1="100.667" x2="87.5" y2="119.667"/>
<path fill="#783741" d="M87.502,122.668c-1.123,0-2.2-0.634-2.713-1.717l-9-19c-0.71-1.497-0.07-3.286,1.427-3.995
	c1.497-0.708,3.285-0.072,3.995,1.427l9,19c0.71,1.497,0.07,3.286-1.427,3.995C88.369,122.574,87.933,122.668,87.502,122.668z"/>
<line fill="#F7BB83" x1="48.5" y1="100.667" x2="39.5" y2="119.667"/>
<path fill="#783741" d="M39.498,122.668c-0.431,0-0.867-0.094-1.282-0.29c-1.497-0.709-2.137-2.498-1.427-3.995l9-19
	c0.71-1.498,2.498-2.134,3.995-1.427c1.497,0.709,2.137,2.498,1.427,3.995l-9,19C41.698,122.034,40.621,122.668,39.498,122.668z"/>
<path fill="#783741" d="M76.5,39.667h-25c-1.105,0-2-0.896-2-2s0.895-2,2-2h25c1.104,0,2,0.896,2,2S77.604,39.667,76.5,39.667z"/>
<path fill="#F6E89A" d="M58.5,84.667c0,2.209-1.791,4-4,4h-9c-2.209,0-4-1.791-4-4l0,0c0-2.209,1.791-4,4-4h9
	C56.709,80.667,58.5,82.458,58.5,84.667L58.5,84.667z"/>
<path fill="#783741" d="M54.5,90.667h-9c-3.309,0-6-2.691-6-6c0-3.309,2.691-6,6-6h9c3.309,0,6,2.691,6,6
	C60.5,87.975,57.809,90.667,54.5,90.667z M45.5,82.667c-1.103,0-2,0.897-2,2s0.897,2,2,2h9c1.102,0,2-0.897,2-2s-0.898-2-2-2H45.5z"
	/>
<path fill="#F6E89A" d="M85.5,84.667c0,2.209-1.791,4-4,4h-9c-2.209,0-4-1.791-4-4l0,0c0-2.209,1.791-4,4-4h9
	C83.709,80.667,85.5,82.458,85.5,84.667L85.5,84.667z"/>
<path fill="#783741" d="M81.5,90.667h-9c-3.309,0-6-2.691-6-6c0-3.309,2.691-6,6-6h9c3.309,0,6,2.691,6,6
	C87.5,87.975,84.809,90.667,81.5,90.667z M72.5,82.667c-1.103,0-2,0.897-2,2s0.897,2,2,2h9c1.102,0,2-0.897,2-2s-0.898-2-2-2H72.5z"
	/>
<path fill="#FFFFFF" d="M87.5,67.667c0,2.209-1.791,4-4,4h-39c-2.209,0-4-1.791-4-4v-16c0-2.209,1.791-4,4-4h39c2.209,0,4,1.791,4,4
	V67.667z"/>
<path fill="#783741" d="M83.5,73.667h-39c-3.309,0-6-2.691-6-6v-16c0-3.309,2.691-6,6-6h39c3.309,0,6,2.691,6,6v16
	C89.5,70.975,86.809,73.667,83.5,73.667z M44.5,49.667c-1.103,0-2,0.897-2,2v16c0,1.103,0.897,2,2,2h39c1.102,0,2-0.897,2-2v-16
	c0-1.103-0.898-2-2-2H44.5z"/>
<line fill="#FFFFFF" x1="48.5" y1="70.667" x2="59.5" y2="59.667"/>
<path fill="#783741" d="M48.5,72.667c-0.512,0-1.023-0.195-1.414-0.586c-0.781-0.781-0.781-2.047,0-2.828l11-11
	c0.781-0.781,2.047-0.781,2.828,0c0.781,0.781,0.781,2.047,0,2.828l-11,11C49.523,72.471,49.012,72.667,48.5,72.667z"/>
<line fill="#FFFFFF" x1="67.5" y1="70.667" x2="78.5" y2="59.667"/>
<path fill="#783741" d="M67.5,72.667c-0.512,0-1.023-0.195-1.414-0.586c-0.781-0.781-0.781-2.047,0-2.828l11-11
	c0.781-0.781,2.047-0.781,2.828,0c0.781,0.781,0.781,2.047,0,2.828l-11,11C68.523,72.471,68.012,72.667,67.5,72.667z"/>
</svg>
