<?xml version="1.0" encoding="utf-8"?>
<!-- Generator: Adobe Illustrator 17.0.0, SVG Export Plug-In . SVG Version: 6.00 Build 0)  -->
<!DOCTYPE svg PUBLIC "-//W3C//DTD SVG 1.1//EN" "http://www.w3.org/Graphics/SVG/1.1/DTD/svg11.dtd">
<svg version="1.1" id="icon" xmlns="http://www.w3.org/2000/svg" xmlns:xlink="http://www.w3.org/1999/xlink" x="0px" y="0px"
	 width="128px" height="128px" viewBox="0 0 128 128" enable-background="new 0 0 128 128" xml:space="preserve">
<ellipse fill="#B8CBCD" cx="62.542" cy="111.814" rx="47.667" ry="11.813"/>
<path fill="#FFBAB0" d="M110.72,15.348c-11.13-11.131-29.176-11.131-40.305,0l-7.779,7.777l13.436,13.436l8.485-8.485
	c3.747-3.747,9.525-3.911,13.271-0.163c3.747,3.747,3.747,9.822,0,13.57L89.411,49.9l0.096,0.097l-9.193,9.191L53.444,32.319
	L8,77.762l40.306,40.305l62.414-62.414C121.85,44.523,121.85,26.477,110.72,15.348z"/>
<path fill="#783741" d="M48.306,121.067c-0.768,0-1.535-0.293-2.121-0.878L5.879,79.884C5.316,79.321,5,78.558,5,77.762
	s0.316-1.559,0.879-2.122l45.444-45.443c1.172-1.171,3.07-1.171,4.242,0l24.748,24.748l6.439-6.438
	c0.138-0.262,0.316-0.509,0.537-0.729l8.417-8.417c2.571-2.572,2.571-6.757,0-9.328c-1.194-1.194-2.742-1.852-4.358-1.852
	c-1.713,0-3.371,0.715-4.671,2.015l-8.485,8.485c-1.172,1.172-3.07,1.172-4.242,0L60.515,25.247
	c-0.563-0.563-0.879-1.326-0.879-2.121c0-0.796,0.316-1.559,0.879-2.122l7.779-7.777C74.242,7.277,82.152,4,90.567,4
	c8.414,0,16.324,3.277,22.273,9.227c5.95,5.949,9.227,13.859,9.227,22.273s-3.276,16.325-9.227,22.274l-62.414,62.414
	C49.841,120.774,49.073,121.067,48.306,121.067z M12.243,77.762l36.063,36.062l60.293-60.293c4.816-4.816,7.469-11.22,7.469-18.032
	c0-6.811-2.652-13.215-7.469-18.03C103.782,12.653,97.378,10,90.567,10c-6.812,0-13.215,2.653-18.031,7.469l-5.657,5.657
	l9.192,9.192l6.364-6.364c2.433-2.433,5.598-3.772,8.913-3.772c3.22,0,6.274,1.282,8.602,3.609c4.909,4.91,4.91,12.901,0,17.813
	l-7.785,7.784c-0.138,0.263-0.316,0.509-0.537,0.73l-9.193,9.191c-1.172,1.171-3.07,1.171-4.242,0L53.444,36.562L12.243,77.762z"/>
<path opacity="0.2" fill="#783741" d="M47.121,116.879c-0.768,0-1.535-0.293-2.121-0.879c-1.172-1.171-1.172-3.071,0-4.242
	l59.531-59.293c4.816-4.816,7.469-11.22,7.469-18.032c0-6.811-2.652-13.215-7.469-18.03c-1.172-1.172-1.172-3.071,0-4.243
	c1.17-1.172,3.07-1.171,4.242,0c5.95,5.949,9.227,13.859,9.227,22.273s-3.276,16.325-9.227,22.274L49.242,116
	C48.656,116.586,47.889,116.879,47.121,116.879z"/>
<path fill="#FFFFFF" d="M57.185,74.605h-4.542v-4.543c0-3.763-3.051-6.814-6.814-6.814c-3.763,0-6.813,3.052-6.813,6.814v4.543
	L39.012,88h14h4C60.775,88,64,85.184,64,81.42C64,77.656,60.949,74.605,57.185,74.605z"/>
<path fill="#783741" d="M57.012,90h-18c-0.53,0-1.039-0.211-1.414-0.586c-0.375-0.376-0.586-0.884-0.586-1.415l0.004-17.937
	c0-4.86,3.954-8.814,8.813-8.814c4.86,0,8.814,3.954,8.814,8.814v2.543h2.542c4.86,0,8.815,3.954,8.815,8.814
	C66,86.151,61.968,90,57.012,90z M41.013,86h15.999C59.809,86,62,83.988,62,81.42c0-2.655-2.16-4.814-4.815-4.814h-4.542
	c-1.104,0-2-0.896-2-2v-4.543c0-2.655-2.16-4.814-4.814-4.814s-4.813,2.16-4.813,4.814L41.013,86z"/>
</svg>
