<?xml version="1.0" encoding="utf-8"?>
<!-- Generator: Adobe Illustrator 17.0.0, SVG Export Plug-In . SVG Version: 6.00 Build 0)  -->
<!DOCTYPE svg PUBLIC "-//W3C//DTD SVG 1.1//EN" "http://www.w3.org/Graphics/SVG/1.1/DTD/svg11.dtd">
<svg version="1.1" id="icon" xmlns="http://www.w3.org/2000/svg" xmlns:xlink="http://www.w3.org/1999/xlink" x="0px" y="0px"
	 width="128px" height="128px" viewBox="0 0 128 128" enable-background="new 0 0 128 128" xml:space="preserve">
<ellipse fill="#B8CBCD" cx="61.511" cy="114.188" rx="47.667" ry="11.813"/>
<path fill="#EBBC96" d="M40.441,113.312c-6.495-2.783-10.518-5.259-8.767-16.655c1.754-11.396-0.875-24.545-7.013-28.052
	c-6.136-3.506-4.383-6.136,1.754-6.136c6.137,0,19.285,17.532,25.422,17.532c8.775,0,11.786,3.676,25.713-3.287
	c12.273-6.136-4.382-1.899,0-1.899c4.383,0,18.993-9.716,18.993-9.716s5.261-2.576,9.644-2.629c3.835-0.048,7.198,3.75-2.631,7.889
	c-16.654,7.013-38.569,23.668-43.83,31.558C54.468,109.805,52.714,118.571,40.441,113.312z"/>
<path fill="#4F3625" d="M46.941,117.908c-2.282,0-4.795-0.602-7.682-1.839c-7.232-3.099-12.601-6.529-10.55-19.869
	c1.644-10.688-0.942-22.366-5.536-24.991c-4.151-2.373-5.896-4.933-5.186-7.609c0.5-1.885,2.369-4.131,8.428-4.131
	c4.228,0,9.095,4.424,14.728,9.546c3.286,2.987,8.785,7.986,10.693,7.986c2.564,0,4.688,0.29,6.563,0.547
	c1.587,0.217,3.087,0.422,4.656,0.422c2.292,0,5.354-0.362,10.779-2.81c-0.026-0.165-0.04-0.335-0.04-0.508
	c0-4.147,7.536-4.264,7.612-4.264c0.032,0,0.063,0,0.096,0.001c5.642-2.658,13.299-7.736,13.379-7.79
	c0.109-0.073,0.224-0.139,0.342-0.196c0.239-0.117,5.925-2.874,10.926-2.935c0.013,0,0.097,0,0.108,0
	c3.374,0,6.106,1.865,6.646,4.535c0.701,3.47-2.053,6.539-8.184,9.12c-17.03,7.171-37.899,23.56-42.498,30.458
	c-0.878,1.317-1.673,2.696-2.442,4.03C56.862,112.673,53.845,117.908,46.941,117.908z M25.334,65.504
	c0.237,0.154,0.508,0.319,0.816,0.496c7.927,4.529,10.29,19.41,8.489,31.113c-1.507,9.803,1.509,11.095,6.983,13.441
	c2.096,0.898,3.885,1.354,5.318,1.354c3.283,0,4.878-2.501,7.641-7.294c0.817-1.416,1.662-2.882,2.648-4.362
	c5.574-8.36,27.956-25.414,45.162-32.659c2.061-0.869,3.228-1.607,3.879-2.125c-0.004,0-0.008,0-0.013,0
	c-2.955,0.036-6.786,1.563-8.23,2.245c-1.201,0.793-7.918,5.176-13.452,7.858c-0.851,1.241-2.675,2.322-5.684,3.826
	c-6.326,3.163-11.21,4.574-15.836,4.574c-1.979,0-3.754-0.243-5.471-0.478c-1.766-0.242-3.592-0.492-5.748-0.492
	c-4.229,0-9.095-4.424-14.729-9.546c-3.286-2.987-8.785-7.986-10.693-7.986C26.013,65.469,25.653,65.482,25.334,65.504z"/>
<path fill="#FFFFFF" d="M35.083,118.67c7.235,3.771,14.325,4.482,15.835,1.589c0.077-0.151,1.986-3.733,3.783-7.097
	c-1.318,0.174-2.637,0.334-3.956,0.542c-2.527,0.402-4.836,0.918-7.396,0.391c-4.17-0.859-7.661-3.708-10.597-6.661
	c-2.008-2.014-2.485-5.229-3.184-8.026c-1.634,3.135-3.901,7.38-3.978,7.524C24.083,109.826,27.847,114.897,35.083,118.67z"/>
<path fill="#D6D0CC" d="M37.849,113.422c7.129,3.768,14.157,2.002,14.157,2.002l4.058-7.773l-0.42,1.939l0,0
	c-4.748,2.155-9.891,0.753-15.087-1.322c-4.712-1.883-8.746-5.221-10.88-9.304c-0.985,1.792-2.587,3.845-2.587,3.845
	S30.242,109.402,37.849,113.422z"/>
<path fill="#4F3625" d="M44.452,126.183c-0.185,0-0.372-0.003-0.562-0.009c-3.526-0.11-7.558-1.26-11.35-3.237
	c-5.692-2.966-10.213-7.584-11.515-11.764c-0.749-2.406-0.267-4.121,0.269-5.135l1.489-2.806c0.908-1.708,1.782-3.35,3.049-5.778
	c0.767-1.469,2.577-2.039,4.048-1.272c1.469,0.766,2.038,2.579,1.272,4.047c-1.276,2.446-2.157,4.101-3.071,5.821l-1.445,2.723
	c-0.135,1.259,2.581,5.668,8.677,8.844c6.057,3.158,11.024,2.841,11.813,2.009c0.099-0.21,5.433-10.295,6.5-12.314
	c0.774-1.464,2.59-2.024,4.055-1.249c1.465,0.774,2.024,2.59,1.25,4.055c0,0-6.304,11.917-6.52,12.333
	C51.151,124.871,48.337,126.183,44.452,126.183z"/>
<path fill="#4F3625" d="M49.828,112.964c-3.15,0-6.502-0.971-10.205-2.926c-5.827-3.076-9.345-6.516-12.143-11.875
	c-0.511-0.979-0.131-2.188,0.848-2.698c0.982-0.511,2.188-0.131,2.699,0.848c2.418,4.635,5.352,7.491,10.463,10.189
	c5.349,2.824,9.322,3.211,13.281,1.29c0.991-0.48,2.19-0.067,2.672,0.927c0.481,0.994,0.066,2.19-0.928,2.672
	C54.355,112.438,52.145,112.964,49.828,112.964z"/>
<path fill="#EBBC96" d="M64.987,85.26c2.629-9.642,11.396-17.532,8.766-18.409c-2.63-0.876-6.731,0.231-9.643,3.507
	c-7.014,7.89-9.643,14.902-9.643,14.902s-19.286,1.753-21.915,16.656"/>
<path fill="#4F3625" d="M32.555,103.916c-0.115,0-0.231-0.01-0.35-0.031c-1.088-0.192-1.813-1.229-1.622-2.317
	c2.491-14.12,17.961-17.466,22.488-18.147c1.058-2.366,3.95-8.099,9.544-14.392c3.229-3.633,8.072-5.307,11.77-4.076
	c0.83,0.277,1.436,0.864,1.706,1.653c0.601,1.752-0.611,3.566-2.811,6.861c-2.144,3.21-5.079,7.607-6.363,12.318
	c-0.289,1.065-1.384,1.696-2.456,1.404c-1.065-0.291-1.693-1.39-1.403-2.456c1.456-5.339,4.6-10.048,6.895-13.487
	c0.59-0.884,1.269-1.899,1.735-2.688c-1.829,0.046-4.206,1.015-6.083,3.127c-6.689,7.524-9.24,14.208-9.265,14.275
	c-0.27,0.719-0.928,1.22-1.692,1.29c-0.175,0.017-17.798,1.813-20.126,15.012C34.352,103.234,33.507,103.916,32.555,103.916z"/>
<path fill="#EBBC96" d="M70.319,90.228c0,0,9.277-15.34,25.35-22.5c3.396-1.514-0.475-3.034-4.091-2.631
	c-3.945,0.439-21.077,10.667-23.962,15.269c-0.771,1.23-2.629,4.894-2.629,4.894"/>
<path fill="#4F3625" d="M70.317,92.228c-0.353,0-0.71-0.093-1.034-0.289c-0.944-0.572-1.246-1.8-0.675-2.745
	c0.372-0.616,8.89-14.492,23.873-22.156c-0.223,0.007-0.45,0.022-0.682,0.048c-3.331,0.371-19.88,10.181-22.489,14.343
	c-0.592,0.945-2.034,3.74-2.54,4.737c-0.499,0.984-1.701,1.379-2.687,0.879c-0.985-0.5-1.379-1.703-0.879-2.688
	c0.077-0.153,1.908-3.759,2.717-5.051c3.097-4.939,20.661-15.663,25.436-16.195c2.644-0.293,6.838,0.193,7.533,2.752
	c0.191,0.703,0.338,2.47-2.406,3.693C81.201,76.362,72.12,91.116,72.03,91.264C71.653,91.884,70.993,92.228,70.317,92.228z"/>
<path fill="#F6E89A" d="M111.356,52.575l-0.051,2.125c0,4.522-19.826,8.583-44.343,8.583c-24.518,0-44.145-4.538-44.145-9.061
	v-2.463"/>
<path fill="#8D4520" d="M66.963,66.283c-0.472,0-47.145-0.138-47.145-12.061v-2.463c0-1.657,1.343-3,3-3c1.657,0,3,1.343,3,3v2.039
	c2.283,2.36,17.737,6.485,41.145,6.485c23.896,0,39.042-3.79,41.354-6.05l0.041-1.729c0.039-1.656,1.417-2.956,3.07-2.927
	c1.657,0.04,2.968,1.415,2.928,3.071l-0.051,2.125C114.306,65.958,71.809,66.283,66.963,66.283z"/>
<path fill="#8D4520" d="M111.356,55.887c-1.657,0-3-1.343-3-3c0-22.896-18.191-40.83-41.415-40.83
	c-23.06,0-41.123,17.935-41.123,40.83c0,1.657-1.343,3-3,3c-1.657,0-3-1.343-3-3c0-26.26,20.699-46.83,47.123-46.83
	c12.691,0,24.591,4.821,33.508,13.576c8.968,8.805,13.907,20.615,13.907,33.254C114.356,54.544,113.014,55.887,111.356,55.887z"/>
<path fill="#F6E89A" d="M97.824,59C97.824,31.081,85,14,67,10"/>
<path fill="#F6E89A" d="M111.356,52.887c0-24.529-19.886-43.83-44.415-43.83c-24.53,0-44.123,19.301-44.123,43.83"/>
<path fill="#FFFFFF" d="M97.824,62c-1.657,0-3-1.343-3-3c0-24.886-10.577-42.705-28.408-46.667
	c-1.618-0.359-2.705-1.366-2.345-2.984c0.359-1.617,1.968-2.632,3.579-2.278C88.423,11.688,100.824,31.1,100.824,59
	C100.824,60.657,99.481,62,97.824,62z"/>
<path fill="#F6E89A" d="M83.824,59C83.824,31.081,78,14,67,10"/>
<path fill="#FFFFFF" d="M83.824,61c-1.104,0-2-0.896-2-2c0-26.75-4.762-44.483-14.762-48.12c-1.038-0.377-1.573-1.525-1.196-2.563
	c0.379-1.039,1.529-1.572,2.563-1.196C80.297,11.437,85.824,30.03,85.824,59C85.824,60.104,84.929,61,83.824,61z"/>
<path fill="#F6E89A" d="M56,13c-18,6-28.213,18.208-28.213,44.209"/>
<path opacity="0.2" fill="#8D4520" d="M27.787,60.209c-1.657,0-3-1.343-3-3c0-25.566,9.334-40.078,30.265-47.055
	c1.572-0.523,3.271,0.326,3.794,1.898c0.524,1.572-0.325,3.271-1.897,3.795c-18.337,6.112-26.161,18.482-26.161,41.363
	C30.787,58.866,29.444,60.209,27.787,60.209z"/>
<path fill="#F6E89A" stroke="#8D4520" stroke-width="6" stroke-linecap="round" stroke-linejoin="round" stroke-miterlimit="10" d="
	M28.079,44.077"/>
<path fill="#8D4520" d="M67.168,55.097c-18.631,0-46.35-2.878-46.35-10.809c0-1.104,0.896-2,2-2c1.077,0,1.955,0.851,1.998,1.917
	c1.154,2.427,16.574,6.892,42.352,6.892c25.711,0,41.059-4.463,42.19-6.888c0.041-1.068,0.92-1.921,1.998-1.921c1.104,0,2,0.896,2,2
	C113.356,52.218,85.734,55.097,67.168,55.097z"/>
<path fill="#8D4520" d="M66.963,66.283c-0.472,0-47.145-0.138-47.145-12.061v-2.463c0-1.657,1.343-3,3-3c1.657,0,3,1.343,3,3v2.039
	c2.283,2.36,17.737,6.485,41.145,6.485c23.896,0,39.042-3.79,41.354-6.05l0.041-1.729c0.039-1.656,1.417-2.956,3.07-2.927
	c1.657,0.04,2.968,1.415,2.928,3.071l-0.051,2.125C114.306,65.958,71.809,66.283,66.963,66.283z"/>
<path fill="#8D4520" d="M111.356,55.887c-1.657,0-3-1.343-3-3c0-22.896-18.191-40.83-41.415-40.83
	c-23.06,0-41.123,17.935-41.123,40.83c0,1.657-1.343,3-3,3c-1.657,0-3-1.343-3-3c0-26.26,20.699-46.83,47.123-46.83
	c12.691,0,24.591,4.821,33.508,13.576c8.968,8.805,13.907,20.615,13.907,33.254C114.356,54.544,113.014,55.887,111.356,55.887z"/>
<path fill="#F6E89A" d="M73.552,13c0-3.754-2.552-7.707-6.797-7.707C62,5.293,60.002,9.246,60.002,13"/>
<path fill="#8D4520" d="M73.552,16c-1.657,0-3-1.343-3-3c0-1.898-1.207-4.708-3.797-4.708c-3.482,0-3.753,3.603-3.753,4.708
	c0,1.657-1.343,3-3,3c-1.657,0-3-1.343-3-3c0-6.304,4.011-10.708,9.753-10.708c6.133,0,9.797,5.444,9.797,10.708
	C76.552,14.657,75.209,16,73.552,16z"/>
</svg>
