<?xml version="1.0" encoding="utf-8"?>
<!-- Generator: Adobe Illustrator 17.0.0, SVG Export Plug-In . SVG Version: 6.00 Build 0)  -->
<!DOCTYPE svg PUBLIC "-//W3C//DTD SVG 1.1//EN" "http://www.w3.org/Graphics/SVG/1.1/DTD/svg11.dtd">
<svg version="1.1" id="icon" xmlns="http://www.w3.org/2000/svg" xmlns:xlink="http://www.w3.org/1999/xlink" x="0px" y="0px"
	 width="128px" height="128px" viewBox="0 0 128 128" enable-background="new 0 0 128 128" xml:space="preserve">
<ellipse fill="#B8CBCD" cx="64.499" cy="110.186" rx="47.667" ry="11.814"/>
<polygon fill="#F6E89A" points="91.167,30.455 65.167,42.272 39.167,30.455 13.167,42.272 13.167,112 39.167,100.182 65.167,112 
	91.167,100.182 117.167,112 117.167,42.272 "/>
<path fill="#8D4520" d="M117.167,115c-0.422,0-0.845-0.089-1.241-0.269l-24.759-11.254l-24.759,11.254
	c-0.788,0.358-1.694,0.358-2.482,0l-24.759-11.254l-24.759,11.254c-0.927,0.423-2.007,0.343-2.865-0.209
	c-0.858-0.552-1.376-1.503-1.376-2.522V42.272c0-1.176,0.688-2.244,1.759-2.731l26-11.818c0.788-0.358,1.694-0.358,2.482,0
	l24.759,11.253l24.759-11.253c0.788-0.358,1.694-0.358,2.482,0l26,11.818c1.071,0.487,1.759,1.555,1.759,2.731V112
	c0,1.02-0.518,1.97-1.376,2.522C118.299,114.839,117.734,115,117.167,115z M39.167,97.182c0.423,0,0.847,0.09,1.241,0.269
	l24.759,11.254l24.759-11.254c0.788-0.358,1.694-0.358,2.482,0l21.759,9.89V44.204l-23-10.454L66.408,45.003
	c-0.788,0.358-1.694,0.358-2.482,0L39.167,33.75l-23,10.454v63.137l21.759-9.89C38.319,97.271,38.743,97.182,39.167,97.182z"/>
<path fill="#8D4520" d="M13.169,92.998c-0.055,0-0.11-0.002-0.166-0.007c-1.099-0.091-1.917-1.051-1.83-2.15
	c0.006-0.072,0.149-1.794,0.87-4.305c0.305-1.062,1.415-1.674,2.474-1.371c1.062,0.305,1.675,1.413,1.371,2.474
	c-0.601,2.095-0.727,3.511-0.728,3.525C15.071,92.207,14.197,92.998,13.169,92.998z"/>
<path fill="#8D4520" d="M85.167,92c-2.78-0.001-5.203-0.351-7.408-1.07c-1.05-0.343-1.624-1.472-1.281-2.522
	c0.343-1.05,1.476-1.622,2.522-1.281c1.798,0.587,3.815,0.872,6.167,0.873c0.19,0,0.378-0.004,0.563-0.014
	c1.102-0.059,2.042,0.795,2.096,1.899c0.055,1.103-0.795,2.042-1.899,2.096C85.678,91.994,85.424,92,85.167,92z M92.761,89.326
	c-0.585,0-1.165-0.255-1.561-0.747c-0.692-0.861-0.555-2.12,0.306-2.812c1.493-1.2,2.879-2.881,4.36-5.291
	c0.578-0.94,1.809-1.235,2.751-0.656c0.941,0.579,1.234,1.811,0.656,2.752c-1.729,2.811-3.4,4.817-5.262,6.313
	C93.643,89.182,93.201,89.326,92.761,89.326z M72.031,87.087c-0.513,0-1.025-0.196-1.416-0.588
	c-1.883-1.888-3.354-4.083-4.821-6.355c-0.599-0.928-0.332-2.166,0.596-2.765c0.927-0.6,2.166-0.333,2.765,0.596
	c1.396,2.164,2.683,4.086,4.291,5.7c0.78,0.782,0.778,2.048-0.004,2.828C73.053,86.893,72.542,87.087,72.031,87.087z M16.966,82.157
	c-0.35,0-0.704-0.092-1.026-0.285c-0.948-0.568-1.255-1.796-0.688-2.744c1.408-2.35,3.119-4.474,5.085-6.313
	c0.807-0.754,2.072-0.711,2.827,0.094c0.754,0.807,0.712,2.072-0.094,2.827c-1.694,1.585-3.17,3.418-4.386,5.448
	C18.309,81.81,17.646,82.157,16.966,82.157z M101.194,76.868c-0.311,0-0.626-0.073-0.921-0.226c-0.98-0.51-1.362-1.717-0.853-2.697
	c1.19-2.289,2.476-4.699,3.957-6.782c0.641-0.901,1.889-1.11,2.789-0.471c0.9,0.641,1.111,1.889,0.471,2.789
	c-1.333,1.874-2.543,4.144-3.667,6.308C102.613,76.475,101.916,76.868,101.194,76.868z M63.099,74.885
	c-0.559,0-1.115-0.233-1.511-0.688c-1.62-1.864-3.294-3.188-5.269-4.169c-0.99-0.491-1.394-1.691-0.903-2.68
	c0.491-0.991,1.69-1.394,2.68-0.903c2.431,1.206,4.561,2.883,6.511,5.128c0.725,0.834,0.636,2.097-0.198,2.821
	C64.031,74.724,63.564,74.885,63.099,74.885z M27.881,71.934c-0.723,0-1.421-0.394-1.777-1.081c-0.508-0.98-0.125-2.188,0.856-2.696
	c2.289-1.186,4.815-2.131,7.508-2.81c1.072-0.266,2.158,0.38,2.428,1.451c0.27,1.071-0.38,2.158-1.451,2.428
	c-2.394,0.603-4.629,1.438-6.645,2.482C28.505,71.862,28.191,71.934,27.881,71.934z M49.98,68.207c-0.076,0-0.153-0.004-0.23-0.013
	C48.628,68.065,47.423,68,46.167,68c-1.232-0.01-2.434,0.04-3.599,0.123c-1.111,0.078-2.058-0.753-2.135-1.855
	c-0.077-1.102,0.753-2.058,1.855-2.135c1.258-0.088,2.556-0.152,3.88-0.132c1.407,0,2.766,0.074,4.038,0.22
	c1.097,0.126,1.885,1.118,1.759,2.215C51.848,67.455,50.983,68.207,49.98,68.207z"/>
<path fill="#8D4520" d="M110.769,65.262c-0.782,0-1.524-0.461-1.845-1.227c-0.427-1.019,0.052-2.191,1.071-2.618
	c1.451-0.609,3.023-0.917,4.672-0.917c1.104,0,2,0.896,2,2s-0.896,2-2,2c-1.13,0-2.153,0.198-3.125,0.606
	C111.289,65.212,111.027,65.262,110.769,65.262z"/>
<path fill="#8D4520" d="M39.167,102.182c-1.105,0-2-0.896-2-2V32c0-1.104,0.895-2,2-2c1.104,0,2,0.896,2,2v68.182
	C41.167,101.286,40.271,102.182,39.167,102.182z"/>
<path fill="#8D4520" d="M65.167,113c-1.104,0-2-0.896-2-2V42.818c0-1.104,0.895-2,2-2s2,0.896,2,2V111
	C67.167,112.104,66.271,113,65.167,113z"/>
<path fill="#8D4520" d="M91.167,102.182c-1.104,0-2-0.896-2-2V32c0-1.104,0.896-2,2-2s2,0.896,2,2v68.182
	C93.167,101.286,92.271,102.182,91.167,102.182z"/>
<path fill="#FFBAB0" d="M84.468,23.802c0,10.383-18.802,33.476-18.802,33.476S46.865,34.185,46.865,23.802
	C46.865,13.418,55.282,5,65.667,5S84.468,13.418,84.468,23.802z"/>
<path fill="#783741" d="M65.667,60.277c-0.902,0-1.757-0.406-2.326-1.106c-1.994-2.448-19.476-24.241-19.476-35.37
	C43.865,11.78,53.645,2,65.667,2s21.802,9.78,21.802,21.802c0,11.129-17.482,32.921-19.476,35.37
	C67.423,59.871,66.569,60.277,65.667,60.277z M65.667,8c-8.713,0-15.802,7.089-15.802,15.802c0,6.074,8.906,19.677,15.801,28.638
	c6.896-8.964,15.802-22.569,15.802-28.638C81.468,15.089,74.38,8,65.667,8z"/>
<circle fill="#FFFFFF" cx="65.667" cy="23.802" r="6.879"/>
<path fill="#783741" d="M65.667,32.68c-4.896,0-8.879-3.983-8.879-8.878c0-4.896,3.983-8.879,8.879-8.879
	c4.896,0,8.879,3.983,8.879,8.879C74.546,28.697,70.563,32.68,65.667,32.68z M65.667,18.923c-2.69,0-4.879,2.188-4.879,4.879
	c0,2.69,2.189,4.878,4.879,4.878s4.879-2.189,4.879-4.878C70.546,21.111,68.357,18.923,65.667,18.923z"/>
</svg>
