<svg width="23" height="23" viewBox="0 0 23 23" fill="none" xmlns="http://www.w3.org/2000/svg">
<path d="M22.5 0.49998C22.7841 0.784058 22.8833 1.20426 22.7562 1.58539L16.0062 21.8353C15.8768 22.2235 15.5357 22.5026 15.1296 22.5526C14.7235 22.6026 14.3248 22.4146 14.1052 22.0693L8.98173 14.0182L0.930611 8.89479C0.585408 8.67511 0.397348 8.27647 0.447342 7.87036C0.497336 7.46425 0.776468 7.12312 1.16464 6.99373L21.4146 0.24375C21.7957 0.116707 22.2159 0.215902 22.5 0.49998ZM11.1016 13.3983L14.6985 19.0504L19.3229 5.17701L11.1016 13.3983ZM17.8229 3.67702L3.94952 8.3015L9.60165 11.8983L17.8229 3.67702Z" fill="white"/>
</svg>
