<svg width="12" height="15" viewBox="0 0 12 15" fill="none" xmlns="http://www.w3.org/2000/svg">
<path d="M6 0.109375C2.7 0.109375 0 2.62937 0 5.70938C0 9.48938 5.25 13.7594 5.475 13.9694C5.625 14.0394 5.85 14.1094 6 14.1094C6.15 14.1094 6.375 14.0394 6.525 13.9694C6.75 13.7594 12 9.48938 12 5.70938C12 2.62937 9.3 0.109375 6 0.109375ZM6 12.4994C4.425 11.0994 1.5 8.08938 1.5 5.70938C1.5 3.39937 3.525 1.50938 6 1.50938C8.475 1.50938 10.5 3.39937 10.5 5.70938C10.5 8.01938 7.575 11.0994 6 12.4994ZM6 2.90938C4.35 2.90938 3 4.16937 3 5.70938C3 7.24938 4.35 8.50938 6 8.50938C7.65 8.50938 9 7.24938 9 5.70938C9 4.16937 7.65 2.90938 6 2.90938ZM6 7.10938C5.175 7.10938 4.5 6.47938 4.5 5.70938C4.5 4.93938 5.175 4.30938 6 4.30938C6.825 4.30938 7.5 4.93938 7.5 5.70938C7.5 6.47938 6.825 7.10938 6 7.10938Z" fill="#FD5056"/>
</svg>
